<svg xmlns="http://www.w3.org/2000/svg" xmlns:xlink="http://www.w3.org/1999/xlink" width="1587" zoomAndPan="magnify" viewBox="0 0 1190.25 1683.749949" height="2245" preserveAspectRatio="xMidYMid meet" version="1.0"><defs><clipPath id="5ea4936797"><path d="M 395 489 L 870.886719 489 L 870.886719 940 L 395 940 Z M 395 489 " clip-rule="nonzero"/></clipPath></defs><path fill="#8f0e1f" d="M 455.859375 550.738281 L 490.847656 550.738281 L 490.847656 574.757812 L 455.859375 574.757812 Z M 455.859375 550.738281 " fill-opacity="1" fill-rule="nonzero"/><path fill="#8f0e1f" d="M 512.457031 550.738281 L 547.445312 550.738281 L 547.445312 574.757812 L 512.457031 574.757812 Z M 512.457031 550.738281 " fill-opacity="1" fill-rule="nonzero"/><path fill="#8f0e1f" d="M 569.050781 550.738281 L 604.046875 550.738281 L 604.046875 574.757812 L 569.050781 574.757812 Z M 569.050781 550.738281 " fill-opacity="1" fill-rule="nonzero"/><g clip-path="url(#5ea4936797)"><path fill="#8f0e1f" d="M 815.082031 489.40625 L 451.148438 489.40625 C 420.246094 489.40625 395.105469 514.523438 395.105469 545.402344 L 395.105469 883.933594 C 395.105469 914.8125 420.246094 939.929688 451.148438 939.929688 L 815.082031 939.929688 C 845.980469 939.929688 871.121094 914.8125 871.121094 883.933594 L 871.121094 545.40625 C 871.125 514.527344 845.980469 489.40625 815.082031 489.40625 Z M 451.148438 513.425781 L 815.082031 513.425781 C 832.722656 513.425781 847.082031 527.769531 847.082031 545.402344 L 847.082031 605.195312 L 419.144531 605.195312 L 419.144531 545.40625 C 419.144531 527.769531 433.503906 513.425781 451.148438 513.425781 Z M 606.269531 878.472656 L 471.367188 878.472656 L 471.367188 790.503906 L 606.269531 790.503906 Z M 606.269531 752.265625 L 471.367188 752.265625 L 471.367188 664.296875 L 606.269531 664.296875 Z M 792.859375 878.472656 L 657.953125 878.472656 L 657.953125 790.503906 L 792.859375 790.503906 Z M 792.859375 752.265625 L 657.953125 752.265625 L 657.953125 664.296875 L 792.859375 664.296875 Z M 792.859375 752.265625 " fill-opacity="1" fill-rule="nonzero"/></g></svg>