<svg xmlns="http://www.w3.org/2000/svg" xmlns:xlink="http://www.w3.org/1999/xlink" width="1587" zoomAndPan="magnify" viewBox="0 0 1190.25 1683.749949" height="2245" preserveAspectRatio="xMidYMid meet" version="1.0"><defs><clipPath id="bcbed5f134"><path d="M 450.964844 348 L 738.78125 348 L 738.78125 838 L 450.964844 838 Z M 450.964844 348 " clip-rule="nonzero"/></clipPath></defs><g clip-path="url(#bcbed5f134)"><path fill="#8f0e1f" d="M 495.273438 348.835938 L 694.796875 348.835938 C 694.796875 348.835938 739.109375 348.835938 739.109375 393.277344 L 739.109375 793.125 C 739.109375 837.570312 694.796875 837.570312 694.796875 837.570312 L 495.273438 837.570312 C 495.273438 837.570312 450.964844 837.570312 450.964844 793.125 L 450.964844 393.277344 C 450.964844 348.835938 495.273438 348.835938 495.273438 348.835938 Z M 475.382812 754.484375 L 714.6875 754.484375 L 714.6875 402.59375 L 475.382812 402.59375 Z M 595.035156 815.375 C 604.191406 815.375 611.671875 807.890625 611.671875 798.675781 C 611.671875 789.511719 604.191406 782.027344 595.035156 782.027344 C 585.878906 782.027344 578.402344 789.511719 578.402344 798.675781 C 578.402344 807.890625 585.878906 815.375 595.035156 815.375 Z M 544.519531 371.03125 C 541.824219 371.03125 539.636719 373.167969 539.636719 375.96875 L 539.636719 377.242188 C 539.636719 379.941406 541.722656 382.179688 544.519531 382.179688 L 645.554688 382.179688 C 648.25 382.179688 650.4375 379.992188 650.4375 377.242188 L 650.4375 375.96875 C 650.4375 373.21875 648.351562 371.03125 645.554688 371.03125 Z M 544.519531 371.03125 " fill-opacity="1" fill-rule="evenodd"/></g></svg>