<svg xmlns="http://www.w3.org/2000/svg" xmlns:xlink="http://www.w3.org/1999/xlink" width="1587" zoomAndPan="magnify" viewBox="0 0 1190.25 1683.749949" height="2245" preserveAspectRatio="xMidYMid meet" version="1.0"><defs><clipPath id="7bcf2a9bd3"><path d="M 359.308594 469.355469 L 830 469.355469 L 830 977 L 359.308594 977 Z M 359.308594 469.355469 " clip-rule="nonzero"/></clipPath><clipPath id="fa3329ded3"><path d="M 529 995 L 661 995 L 661 1061.472656 L 529 1061.472656 Z M 529 995 " clip-rule="nonzero"/></clipPath><clipPath id="c696c120f1"><path d="M 661 498 L 830.628906 498 L 830.628906 668 L 661 668 Z M 661 498 " clip-rule="nonzero"/></clipPath></defs><g clip-path="url(#7bcf2a9bd3)"><path fill="#8f0e1f" d="M 823.863281 926.777344 L 768.90625 881.347656 C 759.15625 873.296875 753.523438 861.316406 753.523438 848.691406 L 753.523438 686.632812 C 751.066406 686.785156 748.648438 686.898438 746.152344 686.898438 C 688.628906 686.898438 641.988281 640.257812 641.988281 582.699219 C 641.988281 563.007812 647.429688 544.601562 656.917969 528.917969 C 650.640625 526.234375 644.179688 523.929688 637.488281 522.078125 C 638.09375 519.203125 638.394531 516.21875 638.394531 513.15625 C 638.394531 488.96875 618.816406 469.355469 594.628906 469.355469 C 570.4375 469.355469 550.824219 488.96875 550.824219 513.15625 C 550.824219 516.21875 551.125 519.203125 551.730469 522.078125 C 484.792969 540.785156 435.695312 602.199219 435.695312 675.105469 L 435.695312 848.691406 C 435.695312 861.316406 430.0625 873.296875 420.3125 881.347656 L 365.355469 926.777344 C 361.539062 929.949219 359.308594 934.675781 359.308594 939.625 L 359.308594 959.921875 C 359.308594 969.144531 366.753906 976.589844 375.976562 976.589844 L 813.242188 976.589844 C 822.464844 976.589844 829.910156 969.144531 829.910156 959.921875 L 829.910156 939.625 C 829.910156 934.675781 827.679688 929.949219 823.863281 926.777344 " fill-opacity="1" fill-rule="nonzero"/></g><g clip-path="url(#fa3329ded3)"><path fill="#8f0e1f" d="M 594.628906 1061.472656 C 630.800781 1061.472656 660.167969 1032.144531 660.167969 995.9375 L 529.089844 995.9375 C 529.089844 1032.144531 558.417969 1061.472656 594.628906 1061.472656 " fill-opacity="1" fill-rule="nonzero"/></g><g clip-path="url(#c696c120f1)"><path fill="#8f0e1f" d="M 714.554688 550.234375 L 737.195312 532.847656 C 740.03125 530.730469 742.449219 529.105469 746.226562 529.105469 L 757.566406 529.105469 C 759.835938 529.105469 761.347656 530.582031 761.347656 532.847656 L 761.347656 631 C 761.347656 633.265625 759.835938 634.777344 757.566406 634.777344 L 743.203125 634.777344 C 740.976562 634.777344 739.460938 633.265625 739.460938 631 L 739.460938 554.011719 L 738.707031 554.011719 L 723.589844 563.800781 C 722.078125 564.707031 719.960938 564.40625 719.054688 563.046875 L 713.800781 554.769531 C 712.742188 553.105469 713.195312 551.292969 714.554688 550.234375 Z M 661.714844 582.699219 C 661.714844 629.335938 699.511719 667.128906 746.152344 667.128906 C 792.792969 667.128906 830.628906 629.335938 830.628906 582.699219 C 830.628906 536.0625 792.792969 498.265625 746.152344 498.265625 C 699.511719 498.265625 661.714844 536.0625 661.714844 582.699219 " fill-opacity="1" fill-rule="nonzero"/></g></svg>