<svg xmlns="http://www.w3.org/2000/svg" xmlns:xlink="http://www.w3.org/1999/xlink" width="1587" zoomAndPan="magnify" viewBox="0 0 1190.25 1683.749949" height="2245" preserveAspectRatio="xMidYMid meet" version="1.0"><defs><clipPath id="cbe815a155"><path d="M 339 572.488281 L 814.789062 572.488281 L 814.789062 1027 L 339 1027 Z M 339 572.488281 " clip-rule="nonzero"/></clipPath></defs><g clip-path="url(#cbe815a155)"><path fill="#8f0e1f" d="M 521.03125 572.917969 C 422.105469 572.917969 339.875 644.757812 339.875 735.105469 C 339.875 778.484375 359.269531 817.871094 390.042969 846.9375 L 389.074219 851.695312 C 382.136719 872.015625 365.078125 883.503906 354.957031 887.171875 C 349.066406 889.269531 344.1875 892.453125 341.484375 898.019531 C 338.824219 903.539062 340.4375 911.199219 344.46875 915.191406 C 353.90625 924.664062 366.167969 923.738281 375.121094 923.820312 C 408.796875 924.222656 448.480469 906.5625 472.515625 894.550781 L 472.796875 894.429688 L 481.027344 889.671875 L 477.878906 888.703125 L 478.242188 888.785156 C 491.632812 891.890625 505.667969 892.855469 519.460938 892.855469 C 606.449219 892.855469 681.300781 840.890625 697.835938 766.105469 L 697.835938 766.066406 C 700.054688 756.109375 701.222656 745.75 701.222656 735.105469 C 701.222656 644.839844 619.960938 572.917969 521.03125 572.917969 Z M 521.03125 593.558594 C 610 593.558594 680.574219 657.257812 680.574219 735.105469 C 680.574219 744.257812 679.566406 753.125 677.671875 761.632812 C 663.554688 825.492188 598.261719 872.214844 519.460938 872.214844 C 506.714844 872.214844 494.171875 871.25 482.960938 868.667969 L 478.445312 867.339844 L 463.160156 876.125 C 440.332031 887.535156 400.972656 903.5 375.363281 903.179688 C 371.855469 903.179688 371.53125 902.492188 369.070312 902.210938 C 383.75 895.035156 400.691406 882.011719 408.753906 858.066406 L 408.917969 857.542969 L 412.628906 840.125 L 408.070312 836.09375 C 378.507812 810.253906 360.523438 774.414062 360.523438 735.105469 C 360.523438 657.335938 432.066406 593.558594 521.03125 593.558594 Z M 432.792969 665.804688 L 432.792969 686.445312 L 608.304688 686.445312 L 608.304688 665.804688 Z M 432.792969 717.40625 L 432.792969 738.046875 L 608.304688 738.046875 L 608.304688 717.40625 Z M 719.652344 760.707031 C 719.128906 764.011719 718.765625 767.316406 718.039062 770.582031 C 717.234375 774.128906 716.1875 777.597656 715.136719 781.105469 C 762.683594 799.449219 793.980469 836.417969 793.980469 877.496094 C 793.980469 906.96875 778.65625 934.503906 750.746094 955.105469 L 745.140625 959.257812 L 746.875 966.027344 C 752.441406 987.355469 771.960938 998.363281 785.472656 1005.699219 C 764.054688 1008.601562 717.515625 1003.761719 694.125 976.109375 L 690.214844 971.429688 L 684.246094 972.640625 C 674.847656 974.496094 663.960938 975.421875 650.890625 975.421875 C 586.6875 975.421875 534.542969 950.546875 514.257812 913.335938 C 505.867188 913.175781 498.042969 912.613281 490.703125 911.726562 C 509.859375 962.441406 571.445312 996.0625 650.890625 996.0625 C 662.789062 996.0625 673.152344 995.335938 682.46875 993.925781 C 705.257812 1016.988281 742.398438 1026.984375 772.484375 1026.984375 C 774.460938 1026.984375 776.4375 1026.945312 778.332031 1026.863281 C 795.796875 1026.058594 807.167969 1022.027344 812.210938 1014.890625 C 814.429688 1011.664062 815.195312 1007.875 814.308594 1004.167969 C 812.574219 996.789062 805.796875 993.160156 796.402344 988.121094 C 787.164062 983.121094 775.027344 976.550781 769.339844 966.753906 C 798.253906 942.886719 814.628906 910.796875 814.628906 877.496094 C 814.628906 826.863281 776.761719 781.667969 719.652344 760.707031 Z M 432.792969 769.011719 L 432.792969 789.652344 L 556.683594 789.652344 L 556.683594 769.011719 Z M 691.058594 830.933594 C 685.898438 838.191406 680.210938 845.125 673.960938 851.574219 L 721.871094 851.574219 L 721.871094 830.933594 Z M 635.042969 882.535156 C 620.808594 891.082031 605.199219 898.058594 588.625 903.179688 L 721.871094 903.179688 L 721.871094 882.535156 Z M 635.042969 882.535156 " fill-opacity="1" fill-rule="nonzero"/></g></svg>