<svg xmlns="http://www.w3.org/2000/svg" xmlns:xlink="http://www.w3.org/1999/xlink" width="1587" zoomAndPan="magnify" viewBox="0 0 1190.25 1683.749949" height="2245" preserveAspectRatio="xMidYMid meet" version="1.0"><defs><clipPath id="8e91d2a406"><path d="M 402.199219 629 L 672 629 L 672 958 L 402.199219 958 Z M 402.199219 629 " clip-rule="nonzero"/></clipPath><clipPath id="05596d0eee"><path d="M 742 550.4375 L 869 550.4375 L 869 710 L 742 710 Z M 742 550.4375 " clip-rule="nonzero"/></clipPath></defs><g clip-path="url(#8e91d2a406)"><path fill="#8f0e1f" d="M 671.539062 910.765625 C 671.539062 909.449219 670.167969 791.113281 568.578125 770.6875 C 569.835938 770.097656 571.078125 769.472656 572.304688 768.8125 C 573.527344 768.152344 574.734375 767.460938 575.917969 766.730469 C 577.105469 766.003906 578.269531 765.242188 579.414062 764.449219 C 580.554688 763.65625 581.675781 762.832031 582.769531 761.972656 C 583.867188 761.117188 584.9375 760.230469 585.984375 759.3125 C 587.03125 758.394531 588.050781 757.449219 589.042969 756.476562 C 590.035156 755.5 591 754.5 591.9375 753.46875 C 592.875 752.441406 593.78125 751.386719 594.660156 750.308594 C 595.535156 749.226562 596.382812 748.125 597.199219 746.996094 C 598.011719 745.867188 598.796875 744.71875 599.546875 743.546875 C 600.296875 742.375 601.011719 741.183594 601.695312 739.96875 C 602.378906 738.757812 603.027344 737.527344 603.640625 736.277344 C 604.253906 735.03125 604.832031 733.765625 605.375 732.484375 C 605.917969 731.203125 606.425781 729.90625 606.894531 728.597656 C 607.363281 727.289062 607.796875 725.964844 608.191406 724.632812 C 608.585938 723.296875 608.941406 721.953125 609.261719 720.597656 C 609.582031 719.246094 609.863281 717.882812 610.105469 716.511719 C 610.347656 715.140625 610.550781 713.765625 610.71875 712.382812 C 610.882812 711.003906 611.007812 709.617188 611.09375 708.230469 C 611.183594 706.839844 611.230469 705.449219 611.238281 704.058594 C 611.25 702.667969 611.21875 701.277344 611.148438 699.886719 C 611.078125 698.496094 610.96875 697.109375 610.824219 695.726562 C 610.675781 694.34375 610.488281 692.964844 610.261719 691.589844 C 610.039062 690.21875 609.773438 688.851562 609.472656 687.496094 C 609.171875 686.136719 608.828125 684.789062 608.453125 683.449219 C 608.074219 682.109375 607.65625 680.78125 607.203125 679.464844 C 606.753906 678.152344 606.261719 676.847656 605.734375 675.5625 C 605.210938 674.273438 604.648438 673 604.050781 671.742188 C 603.453125 670.488281 602.820312 669.25 602.152344 668.027344 C 601.484375 666.808594 600.78125 665.605469 600.046875 664.425781 C 599.3125 663.246094 598.542969 662.085938 597.742188 660.945312 C 596.941406 659.808594 596.109375 658.695312 595.246094 657.601562 C 594.382812 656.511719 593.488281 655.445312 592.566406 654.40625 C 591.640625 653.363281 590.691406 652.351562 589.710938 651.363281 C 588.730469 650.378906 587.722656 649.417969 586.6875 648.488281 C 585.652344 647.558594 584.59375 646.65625 583.507812 645.785156 C 582.421875 644.917969 581.3125 644.078125 580.179688 643.269531 C 579.046875 642.460938 577.894531 641.6875 576.714844 640.941406 C 575.539062 640.199219 574.34375 639.492188 573.128906 638.816406 C 571.910156 638.140625 570.675781 637.5 569.425781 636.890625 C 568.171875 636.285156 566.902344 635.714844 565.621094 635.183594 C 564.335938 634.648438 563.035156 634.148438 561.722656 633.6875 C 560.410156 633.226562 559.085938 632.800781 557.75 632.414062 C 556.414062 632.027344 555.066406 631.679688 553.710938 631.371094 C 552.355469 631.058594 550.992188 630.785156 549.621094 630.550781 C 548.25 630.316406 546.871094 630.121094 545.488281 629.964844 C 544.105469 629.808594 542.722656 629.691406 541.332031 629.613281 C 539.945312 629.535156 538.554688 629.496094 537.164062 629.496094 C 535.769531 629.496094 534.378906 629.535156 532.992188 629.613281 C 531.601562 629.691406 530.21875 629.808594 528.835938 629.964844 C 527.453125 630.121094 526.074219 630.316406 524.703125 630.550781 C 523.332031 630.785156 521.96875 631.058594 520.613281 631.371094 C 519.257812 631.679688 517.910156 632.027344 516.574219 632.414062 C 515.238281 632.800781 513.914062 633.226562 512.601562 633.6875 C 511.289062 634.148438 509.988281 634.648438 508.707031 635.183594 C 507.421875 635.714844 506.152344 636.285156 504.898438 636.890625 C 503.648438 637.5 502.414062 638.140625 501.195312 638.816406 C 499.980469 639.492188 498.785156 640.199219 497.609375 640.941406 C 496.433594 641.6875 495.277344 642.460938 494.144531 643.269531 C 493.011719 644.078125 491.902344 644.917969 490.816406 645.785156 C 489.730469 646.65625 488.671875 647.558594 487.636719 648.488281 C 486.601562 649.417969 485.59375 650.378906 484.613281 651.363281 C 483.632812 652.351562 482.683594 653.363281 481.757812 654.40625 C 480.835938 655.445312 479.941406 656.511719 479.078125 657.601562 C 478.214844 658.695312 477.382812 659.808594 476.582031 660.945312 C 475.78125 662.085938 475.011719 663.246094 474.277344 664.425781 C 473.542969 665.605469 472.839844 666.808594 472.171875 668.027344 C 471.503906 669.25 470.871094 670.488281 470.273438 671.742188 C 469.675781 673 469.113281 674.273438 468.589844 675.5625 C 468.0625 676.847656 467.574219 678.152344 467.121094 679.464844 C 466.667969 680.78125 466.25 682.109375 465.871094 683.449219 C 465.496094 684.789062 465.15625 686.136719 464.851562 687.496094 C 464.550781 688.851562 464.285156 690.21875 464.0625 691.589844 C 463.835938 692.964844 463.648438 694.34375 463.5 695.726562 C 463.355469 697.109375 463.246094 698.496094 463.175781 699.886719 C 463.105469 701.277344 463.074219 702.667969 463.085938 704.058594 C 463.09375 705.449219 463.140625 706.839844 463.230469 708.230469 C 463.316406 709.617188 463.441406 711.003906 463.605469 712.382812 C 463.773438 713.765625 463.976562 715.140625 464.21875 716.511719 C 464.460938 717.882812 464.742188 719.246094 465.0625 720.597656 C 465.382812 721.953125 465.738281 723.296875 466.132812 724.632812 C 466.527344 725.964844 466.960938 727.289062 467.429688 728.597656 C 467.898438 729.90625 468.40625 731.203125 468.949219 732.484375 C 469.492188 733.765625 470.070312 735.03125 470.683594 736.277344 C 471.296875 737.527344 471.945312 738.757812 472.628906 739.96875 C 473.3125 741.183594 474.027344 742.375 474.777344 743.546875 C 475.527344 744.71875 476.3125 745.867188 477.125 746.996094 C 477.941406 748.125 478.789062 749.226562 479.664062 750.308594 C 480.542969 751.386719 481.449219 752.441406 482.386719 753.46875 C 483.324219 754.5 484.289062 755.5 485.28125 756.476562 C 486.273438 757.449219 487.292969 758.394531 488.339844 759.3125 C 489.386719 760.230469 490.457031 761.117188 491.554688 761.972656 C 492.648438 762.832031 493.769531 763.65625 494.910156 764.449219 C 496.054688 765.242188 497.21875 766.003906 498.40625 766.730469 C 499.589844 767.460938 500.796875 768.152344 502.019531 768.8125 C 503.246094 769.472656 504.488281 770.097656 505.746094 770.6875 C 404.40625 790.960938 402.785156 909.449219 402.785156 910.765625 C 402.796875 911.617188 403.007812 912.417969 403.421875 913.164062 C 403.835938 913.910156 404.398438 914.511719 405.117188 914.972656 C 449.03125 943.417969 493.046875 957.625 537.164062 957.59375 C 581.277344 957.558594 625.292969 943.351562 669.207031 914.972656 C 669.925781 914.511719 670.488281 913.910156 670.902344 913.164062 C 671.316406 912.417969 671.527344 911.617188 671.539062 910.765625 Z M 473.21875 703.742188 C 473.21875 702.695312 473.242188 701.648438 473.292969 700.605469 C 473.34375 699.558594 473.421875 698.515625 473.523438 697.472656 C 473.628906 696.433594 473.753906 695.394531 473.910156 694.359375 C 474.0625 693.324219 474.242188 692.292969 474.445312 691.265625 C 474.648438 690.238281 474.878906 689.21875 475.132812 688.203125 C 475.386719 687.1875 475.667969 686.179688 475.96875 685.175781 C 476.273438 684.175781 476.601562 683.183594 476.957031 682.195312 C 477.308594 681.210938 477.683594 680.234375 478.085938 679.265625 C 478.484375 678.300781 478.910156 677.34375 479.355469 676.398438 C 479.804688 675.453125 480.273438 674.515625 480.769531 673.59375 C 481.261719 672.671875 481.777344 671.761719 482.316406 670.863281 C 482.851562 669.964844 483.414062 669.082031 483.992188 668.210938 C 484.574219 667.339844 485.175781 666.484375 485.800781 665.644531 C 486.425781 664.804688 487.066406 663.976562 487.730469 663.167969 C 488.394531 662.359375 489.078125 661.566406 489.78125 660.792969 C 490.484375 660.015625 491.207031 659.257812 491.945312 658.519531 C 492.6875 657.777344 493.445312 657.054688 494.21875 656.355469 C 494.996094 655.652344 495.785156 654.96875 496.597656 654.304688 C 497.40625 653.640625 498.230469 652.996094 499.070312 652.371094 C 499.910156 651.75 500.765625 651.144531 501.636719 650.5625 C 502.507812 649.984375 503.390625 649.421875 504.289062 648.886719 C 505.183594 648.347656 506.097656 647.832031 507.019531 647.335938 C 507.941406 646.84375 508.875 646.375 509.820312 645.925781 C 510.769531 645.480469 511.726562 645.054688 512.691406 644.652344 C 513.660156 644.253906 514.632812 643.878906 515.621094 643.523438 C 516.605469 643.171875 517.597656 642.84375 518.601562 642.539062 C 519.601562 642.234375 520.609375 641.957031 521.625 641.703125 C 522.640625 641.449219 523.660156 641.21875 524.6875 641.015625 C 525.714844 640.808594 526.746094 640.632812 527.78125 640.476562 C 528.816406 640.324219 529.851562 640.195312 530.894531 640.09375 C 531.9375 639.992188 532.980469 639.914062 534.023438 639.863281 C 535.070312 639.8125 536.117188 639.785156 537.164062 639.785156 C 538.207031 639.785156 539.253906 639.8125 540.300781 639.863281 C 541.34375 639.914062 542.386719 639.992188 543.429688 640.09375 C 544.472656 640.195312 545.507812 640.324219 546.542969 640.476562 C 547.578125 640.632812 548.609375 640.808594 549.636719 641.015625 C 550.664062 641.21875 551.683594 641.449219 552.699219 641.703125 C 553.714844 641.957031 554.722656 642.234375 555.722656 642.539062 C 556.726562 642.84375 557.71875 643.171875 558.703125 643.523438 C 559.691406 643.878906 560.664062 644.253906 561.632812 644.652344 C 562.601562 645.054688 563.554688 645.480469 564.503906 645.925781 C 565.449219 646.375 566.382812 646.84375 567.304688 647.335938 C 568.230469 647.832031 569.140625 648.347656 570.035156 648.886719 C 570.933594 649.421875 571.816406 649.984375 572.6875 650.5625 C 573.558594 651.144531 574.414062 651.75 575.253906 652.371094 C 576.09375 652.996094 576.917969 653.640625 577.726562 654.304688 C 578.539062 654.96875 579.328125 655.652344 580.105469 656.355469 C 580.878906 657.054688 581.636719 657.777344 582.378906 658.519531 C 583.117188 659.257812 583.839844 660.015625 584.542969 660.792969 C 585.246094 661.566406 585.929688 662.359375 586.59375 663.167969 C 587.257812 663.976562 587.898438 664.804688 588.523438 665.644531 C 589.148438 666.484375 589.75 667.339844 590.332031 668.210938 C 590.910156 669.082031 591.472656 669.964844 592.007812 670.863281 C 592.546875 671.761719 593.0625 672.671875 593.554688 673.59375 C 594.050781 674.515625 594.519531 675.453125 594.96875 676.398438 C 595.414062 677.34375 595.839844 678.300781 596.238281 679.265625 C 596.640625 680.234375 597.015625 681.210938 597.371094 682.195312 C 597.722656 683.179688 598.050781 684.175781 598.355469 685.175781 C 598.65625 686.179688 598.9375 687.1875 599.191406 688.203125 C 599.445312 689.21875 599.675781 690.238281 599.878906 691.265625 C 600.082031 692.292969 600.261719 693.324219 600.414062 694.359375 C 600.570312 695.394531 600.695312 696.433594 600.800781 697.472656 C 600.902344 698.515625 600.980469 699.558594 601.03125 700.605469 C 601.082031 701.648438 601.105469 702.695312 601.105469 703.742188 C 601.105469 704.789062 601.082031 705.835938 601.03125 706.878906 C 600.980469 707.925781 600.902344 708.96875 600.800781 710.011719 C 600.695312 711.054688 600.570312 712.089844 600.414062 713.125 C 600.261719 714.164062 600.082031 715.191406 599.878906 716.21875 C 599.675781 717.246094 599.445312 718.265625 599.191406 719.28125 C 598.9375 720.296875 598.65625 721.304688 598.355469 722.308594 C 598.050781 723.308594 597.722656 724.304688 597.371094 725.289062 C 597.015625 726.273438 596.640625 727.25 596.238281 728.21875 C 595.839844 729.183594 595.414062 730.140625 594.96875 731.085938 C 594.519531 732.035156 594.050781 732.96875 593.554688 733.890625 C 593.0625 734.816406 592.546875 735.726562 592.007812 736.621094 C 591.472656 737.519531 590.910156 738.40625 590.332031 739.273438 C 589.75 740.144531 589.148438 741 588.523438 741.839844 C 587.898438 742.683594 587.257812 743.507812 586.59375 744.316406 C 585.929688 745.125 585.246094 745.917969 584.542969 746.691406 C 583.839844 747.46875 583.117188 748.226562 582.378906 748.964844 C 581.636719 749.707031 580.878906 750.429688 580.105469 751.132812 C 579.328125 751.835938 578.539062 752.519531 577.726562 753.179688 C 576.917969 753.84375 576.09375 754.488281 575.253906 755.113281 C 574.414062 755.738281 573.558594 756.339844 572.6875 756.921875 C 571.816406 757.503906 570.933594 758.0625 570.035156 758.601562 C 569.140625 759.136719 568.230469 759.652344 567.304688 760.148438 C 566.382812 760.640625 565.449219 761.109375 564.503906 761.558594 C 563.554688 762.007812 562.601562 762.429688 561.632812 762.832031 C 560.664062 763.230469 559.691406 763.609375 558.703125 763.960938 C 557.71875 764.3125 556.726562 764.640625 555.722656 764.945312 C 554.722656 765.25 553.714844 765.527344 552.699219 765.78125 C 551.683594 766.035156 550.664062 766.265625 549.636719 766.46875 C 548.609375 766.675781 547.578125 766.851562 546.542969 767.007812 C 545.507812 767.160156 544.472656 767.289062 543.429688 767.390625 C 542.386719 767.492188 541.34375 767.570312 540.300781 767.621094 C 539.253906 767.671875 538.207031 767.699219 537.164062 767.699219 C 536.117188 767.699219 535.070312 767.671875 534.023438 767.621094 C 532.980469 767.570312 531.9375 767.492188 530.894531 767.390625 C 529.851562 767.289062 528.816406 767.160156 527.78125 767.007812 C 526.746094 766.851562 525.714844 766.675781 524.6875 766.46875 C 523.660156 766.265625 522.640625 766.035156 521.625 765.78125 C 520.609375 765.527344 519.601562 765.25 518.601562 764.945312 C 517.597656 764.640625 516.605469 764.3125 515.621094 763.960938 C 514.632812 763.609375 513.660156 763.230469 512.691406 762.832031 C 511.726562 762.429688 510.769531 762.007812 509.820312 761.558594 C 508.875 761.109375 507.941406 760.640625 507.019531 760.148438 C 506.097656 759.652344 505.183594 759.136719 504.289062 758.601562 C 503.390625 758.0625 502.507812 757.503906 501.636719 756.921875 C 500.765625 756.339844 499.910156 755.738281 499.070312 755.113281 C 498.230469 754.488281 497.40625 753.84375 496.597656 753.179688 C 495.785156 752.519531 494.996094 751.835938 494.21875 751.132812 C 493.445312 750.429688 492.6875 749.707031 491.945312 748.964844 C 491.207031 748.226562 490.484375 747.46875 489.78125 746.691406 C 489.078125 745.917969 488.394531 745.125 487.730469 744.316406 C 487.066406 743.507812 486.425781 742.683594 485.800781 741.839844 C 485.175781 741 484.574219 740.144531 483.992188 739.273438 C 483.414062 738.40625 482.851562 737.519531 482.316406 736.621094 C 481.777344 735.726562 481.261719 734.816406 480.769531 733.890625 C 480.273438 732.96875 479.804688 732.035156 479.355469 731.085938 C 478.910156 730.140625 478.484375 729.183594 478.085938 728.21875 C 477.683594 727.25 477.308594 726.273438 476.957031 725.289062 C 476.601562 724.304688 476.273438 723.308594 475.96875 722.308594 C 475.667969 721.304688 475.386719 720.296875 475.132812 719.28125 C 474.878906 718.265625 474.648438 717.246094 474.445312 716.21875 C 474.242188 715.191406 474.0625 714.164062 473.910156 713.125 C 473.753906 712.089844 473.628906 711.054688 473.523438 710.011719 C 473.421875 708.96875 473.34375 707.925781 473.292969 706.878906 C 473.242188 705.835938 473.21875 704.789062 473.21875 703.742188 Z M 413.023438 908.027344 C 413.730469 888.515625 423.15625 777.835938 537.164062 777.835938 C 651.167969 777.835938 660.59375 888.515625 661.300781 908.027344 C 578.863281 960.378906 495.410156 960.378906 413.023438 908.027344 Z M 413.023438 908.027344 " fill-opacity="1" fill-rule="nonzero"/></g><path fill="#8f0e1f" d="M 759.144531 743.273438 C 761.507812 743.28125 763.722656 742.707031 765.78125 741.550781 L 766.339844 741.144531 C 770.648438 738.304688 774.75 731.769531 772.574219 716.816406 C 772.574219 715.90625 772.574219 715.042969 772.167969 714.03125 C 769.039062 699.527344 763.71875 685.875 756.207031 673.082031 C 745.769531 654.9375 732.039062 638.621094 719.675781 631.828125 C 718.464844 631.007812 717.175781 630.34375 715.808594 629.828125 C 714.441406 629.316406 713.035156 628.972656 711.585938 628.796875 C 710.132812 628.621094 708.683594 628.617188 707.234375 628.785156 C 705.785156 628.957031 704.375 629.296875 703.003906 629.800781 L 702.394531 630.105469 L 702.089844 630.105469 L 701.636719 630.460938 C 700.996094 630.871094 700.402344 631.34375 699.863281 631.878906 L 699.101562 632.640625 C 698.542969 633.265625 698.054688 633.941406 697.632812 634.667969 L 697.125 635.425781 L 630.75 711.445312 C 629.78125 712.558594 628.902344 713.734375 628.101562 714.972656 C 627.304688 716.210938 626.601562 717.5 625.984375 718.835938 C 625.371094 720.175781 624.855469 721.554688 624.441406 722.964844 C 624.023438 724.378906 623.707031 725.8125 623.496094 727.273438 C 623.285156 728.730469 623.179688 730.195312 623.175781 731.667969 C 623.171875 733.140625 623.277344 734.605469 623.484375 736.066406 C 623.691406 737.523438 624 738.960938 624.414062 740.375 C 624.824219 741.789062 625.335938 743.167969 625.945312 744.507812 C 626.554688 745.847656 627.257812 747.140625 628.050781 748.378906 C 628.84375 749.621094 629.722656 750.800781 630.683594 751.914062 C 631.648438 753.03125 632.683594 754.070312 633.792969 755.039062 C 634.90625 756.003906 636.078125 756.886719 637.316406 757.6875 C 638.554688 758.488281 639.84375 759.195312 641.179688 759.808594 C 642.519531 760.421875 643.894531 760.941406 645.304688 761.359375 C 646.71875 761.777344 648.152344 762.09375 649.609375 762.304688 C 651.066406 762.519531 652.535156 762.628906 654.007812 762.632812 C 655.964844 762.621094 657.90625 762.4375 659.832031 762.074219 L 666.875 760.707031 L 691.148438 802.972656 C 691.601562 803.757812 692.222656 804.378906 693.011719 804.832031 C 693.796875 805.285156 694.644531 805.507812 695.554688 805.503906 C 696.441406 805.503906 697.269531 805.285156 698.039062 804.847656 L 725.347656 789.136719 C 725.929688 788.804688 726.429688 788.378906 726.839844 787.851562 C 727.253906 787.324219 727.550781 786.738281 727.730469 786.09375 C 727.90625 785.445312 727.949219 784.785156 727.859375 784.121094 C 727.773438 783.453125 727.558594 782.828125 727.222656 782.242188 L 710.097656 752.394531 L 758.890625 743.019531 Z M 707.007812 639.128906 C 707.492188 638.839844 708.015625 638.703125 708.578125 638.722656 C 714.859375 638.722656 731.429688 650.734375 747.238281 678.25 C 754.351562 689.957031 759.417969 702.492188 762.4375 715.855469 C 764.3125 725.992188 763.046875 731.515625 760.917969 732.730469 C 758.789062 733.945312 751.644531 731.871094 741.511719 721.683594 C 746.074219 712.511719 744.300781 698.117188 736.445312 684.535156 C 728.640625 670.953125 717.140625 662.1875 706.90625 661.476562 C 703.105469 647.742188 704.777344 640.34375 707.007812 639.128906 Z M 733.507812 712.914062 C 728.753906 706.804688 724.5 700.371094 720.738281 693.605469 C 716.835938 686.867188 713.457031 679.875 710.605469 672.625 C 714.285156 674.476562 717.589844 676.84375 720.527344 679.734375 C 723.460938 682.628906 725.878906 685.898438 727.78125 689.550781 C 729.917969 693.058594 731.472656 696.804688 732.453125 700.789062 C 733.429688 704.777344 733.78125 708.820312 733.507812 712.914062 Z M 715.671875 783.105469 L 697.125 793.699219 L 676.859375 758.882812 L 699.050781 754.625 Z M 657.605469 752.292969 C 656.550781 752.496094 655.488281 752.617188 654.414062 752.652344 C 653.34375 752.691406 652.273438 752.644531 651.210938 752.515625 C 650.144531 752.386719 649.097656 752.179688 648.0625 751.886719 C 647.03125 751.59375 646.027344 751.226562 645.050781 750.777344 C 644.078125 750.332031 643.140625 749.8125 642.25 749.21875 C 641.355469 748.628906 640.511719 747.96875 639.71875 747.246094 C 638.925781 746.523438 638.195312 745.742188 637.523438 744.90625 C 636.851562 744.066406 636.25 743.183594 635.714844 742.253906 C 635.183594 741.324219 634.722656 740.355469 634.339844 739.355469 C 633.957031 738.351562 633.652344 737.328125 633.425781 736.277344 C 633.203125 735.230469 633.058594 734.167969 633 733.097656 C 632.941406 732.027344 632.960938 730.957031 633.070312 729.890625 C 633.175781 728.820312 633.363281 727.769531 633.632812 726.730469 C 633.902344 725.691406 634.25 724.679688 634.675781 723.695312 C 635.101562 722.710938 635.601562 721.765625 636.175781 720.859375 C 636.75 719.953125 637.390625 719.09375 638.097656 718.289062 L 694.847656 653.417969 C 694.847656 654.535156 695.148438 655.75 695.402344 656.964844 C 695.402344 657.269531 695.402344 657.574219 695.402344 657.878906 C 695.402344 658.183594 695.402344 658.890625 695.757812 659.398438 C 696.113281 659.90625 696.113281 661.171875 696.316406 662.085938 C 696.769531 663.910156 697.277344 665.785156 697.835938 667.660156 L 697.835938 668.214844 C 698.015625 668.644531 698.167969 669.085938 698.292969 669.535156 C 698.847656 671.207031 699.40625 672.878906 700.066406 674.601562 L 700.671875 676.324219 C 701.585938 678.605469 702.496094 680.9375 703.5625 683.269531 C 704.574219 685.597656 705.738281 687.929688 706.90625 690.3125 L 707.460938 691.375 C 708.679688 693.808594 709.996094 696.445312 711.363281 698.625 C 712.730469 700.804688 714.203125 703.386719 715.671875 705.71875 L 716.125 706.378906 C 717.496094 708.507812 718.914062 710.585938 720.332031 712.609375 L 721.296875 713.929688 C 722.664062 715.804688 724.082031 717.679688 725.5 719.453125 L 726.414062 720.566406 C 727.578125 721.988281 728.742188 723.304688 729.910156 724.621094 L 730.820312 725.6875 L 731.480469 726.394531 L 732.949219 727.867188 C 734.621094 729.589844 736.292969 731.210938 738.015625 732.933594 C 738.929688 733.746094 739.839844 734.453125 740.703125 735.164062 L 741.308594 735.671875 L 741.96875 736.175781 Z M 657.605469 752.292969 " fill-opacity="1" fill-rule="nonzero"/><g clip-path="url(#05596d0eee)"><path fill="#8f0e1f" d="M 748.097656 550.691406 C 747.765625 550.640625 747.433594 550.625 747.097656 550.640625 C 746.757812 550.65625 746.429688 550.707031 746.101562 550.785156 C 745.773438 550.867188 745.460938 550.980469 745.15625 551.121094 C 744.851562 551.265625 744.5625 551.4375 744.292969 551.636719 C 744.019531 551.839844 743.773438 552.0625 743.546875 552.3125 C 743.320312 552.558594 743.121094 552.828125 742.945312 553.117188 C 742.773438 553.40625 742.628906 553.707031 742.515625 554.023438 C 742.402344 554.34375 742.320312 554.667969 742.269531 555 C 742.21875 555.332031 742.203125 555.667969 742.21875 556.003906 C 742.234375 556.339844 742.28125 556.671875 742.363281 556.996094 C 742.445312 557.324219 742.558594 557.640625 742.703125 557.945312 C 742.84375 558.25 743.015625 558.535156 743.21875 558.808594 C 743.417969 559.078125 743.640625 559.328125 743.890625 559.550781 C 744.140625 559.777344 744.410156 559.980469 744.695312 560.152344 C 744.984375 560.324219 745.289062 560.46875 745.605469 560.582031 C 745.921875 560.695312 746.246094 560.777344 746.578125 560.828125 C 748.402344 561.082031 750.175781 561.4375 751.949219 561.792969 C 818.328125 574.5625 863.828125 633.046875 858.355469 698.625 C 858.355469 700.347656 858.050781 702.070312 857.851562 703.691406 C 857.8125 704.019531 857.804688 704.351562 857.828125 704.679688 C 857.855469 705.011719 857.914062 705.335938 858.003906 705.65625 C 858.09375 705.976562 858.210938 706.28125 858.363281 706.578125 C 858.511719 706.875 858.6875 707.152344 858.894531 707.414062 C 859.097656 707.675781 859.324219 707.914062 859.578125 708.128906 C 859.828125 708.347656 860.097656 708.535156 860.386719 708.699219 C 860.675781 708.863281 860.976562 708.996094 861.292969 709.101562 C 861.605469 709.203125 861.929688 709.277344 862.257812 709.316406 L 862.613281 709.316406 C 863.230469 709.324219 863.832031 709.21875 864.410156 709.003906 C 864.992188 708.789062 865.515625 708.480469 865.980469 708.074219 C 866.449219 707.667969 866.828125 707.191406 867.121094 706.644531 C 867.414062 706.101562 867.597656 705.523438 867.679688 704.90625 C 877.207031 630.054688 824.660156 562.347656 748.097656 550.691406 Z M 748.097656 550.691406 " fill-opacity="1" fill-rule="nonzero"/></g><path fill="#8f0e1f" d="M 789.292969 601.828125 C 782.539062 597.089844 775.339844 593.175781 767.691406 590.085938 C 760.042969 587 752.144531 584.8125 743.996094 583.53125 C 743.664062 583.480469 743.328125 583.457031 742.992188 583.472656 C 742.65625 583.484375 742.320312 583.53125 741.996094 583.609375 C 741.667969 583.6875 741.351562 583.796875 741.042969 583.9375 C 740.738281 584.078125 740.449219 584.246094 740.175781 584.441406 C 739.902344 584.640625 739.652344 584.863281 739.421875 585.109375 C 739.191406 585.359375 738.988281 585.625 738.8125 585.910156 C 738.636719 586.199219 738.488281 586.5 738.375 586.816406 C 738.257812 587.132812 738.171875 587.457031 738.117188 587.789062 C 738.0625 588.121094 738.042969 588.457031 738.058594 588.792969 C 738.070312 589.128906 738.113281 589.460938 738.191406 589.789062 C 738.269531 590.117188 738.378906 590.433594 738.519531 590.742188 C 738.660156 591.046875 738.832031 591.335938 739.027344 591.609375 C 739.226562 591.882812 739.449219 592.132812 739.695312 592.363281 C 739.941406 592.59375 740.210938 592.796875 740.496094 592.972656 C 740.785156 593.148438 741.085938 593.296875 741.402344 593.414062 C 741.714844 593.53125 742.042969 593.613281 742.375 593.667969 C 744.25 593.972656 746.023438 594.328125 747.847656 594.730469 C 754.21875 596.117188 760.386719 598.117188 766.359375 600.738281 C 772.328125 603.355469 777.980469 606.539062 783.316406 610.289062 C 787.355469 613.0625 791.160156 616.132812 794.726562 619.492188 C 798.296875 622.855469 801.585938 626.46875 804.59375 630.339844 C 807.601562 634.207031 810.296875 638.285156 812.675781 642.570312 C 815.054688 646.859375 817.089844 651.300781 818.785156 655.902344 C 821.0625 662.015625 822.667969 668.304688 823.601562 674.761719 C 824.53125 681.222656 824.765625 687.707031 824.304688 694.214844 C 824.304688 695.988281 824.003906 697.710938 823.800781 699.28125 C 823.757812 699.613281 823.746094 699.945312 823.769531 700.28125 C 823.792969 700.613281 823.847656 700.941406 823.9375 701.261719 C 824.023438 701.585938 824.144531 701.894531 824.292969 702.195312 C 824.441406 702.492188 824.617188 702.773438 824.824219 703.039062 C 825.027344 703.300781 825.257812 703.542969 825.507812 703.761719 C 825.761719 703.980469 826.035156 704.171875 826.324219 704.335938 C 826.613281 704.5 826.917969 704.636719 827.234375 704.742188 C 827.550781 704.84375 827.875 704.917969 828.207031 704.957031 L 828.867188 704.957031 C 829.484375 704.964844 830.085938 704.859375 830.664062 704.644531 C 831.246094 704.429688 831.769531 704.121094 832.234375 703.714844 C 832.703125 703.308594 833.082031 702.832031 833.375 702.289062 C 833.667969 701.742188 833.851562 701.164062 833.933594 700.550781 C 835.421875 688.621094 834.832031 676.796875 832.160156 665.074219 C 831.15625 660.753906 829.890625 656.515625 828.359375 652.355469 C 826.5 647.265625 824.257812 642.351562 821.640625 637.605469 C 819.019531 632.863281 816.054688 628.347656 812.742188 624.0625 C 809.425781 619.777344 805.804688 615.769531 801.875 612.042969 C 797.941406 608.3125 793.75 604.910156 789.292969 601.828125 Z M 789.292969 601.828125 " fill-opacity="1" fill-rule="nonzero"/><path fill="#8f0e1f" d="M 794.058594 700.652344 L 794.714844 700.652344 C 795.335938 700.65625 795.941406 700.550781 796.523438 700.332031 C 797.105469 700.113281 797.632812 699.800781 798.097656 699.386719 C 798.566406 698.976562 798.945312 698.496094 799.234375 697.945312 C 799.523438 697.394531 799.707031 696.808594 799.78125 696.191406 C 800.039062 693.921875 800.1875 691.644531 800.226562 689.359375 C 800.269531 687.074219 800.199219 684.792969 800.023438 682.515625 C 799.847656 680.234375 799.5625 677.972656 799.171875 675.71875 C 798.78125 673.46875 798.285156 671.242188 797.679688 669.039062 C 797.078125 666.832031 796.371094 664.664062 795.5625 662.527344 C 794.75 660.390625 793.84375 658.296875 792.835938 656.246094 C 791.824219 654.195312 790.722656 652.199219 789.523438 650.253906 C 788.324219 648.308594 787.039062 646.421875 785.660156 644.601562 C 784.28125 642.777344 782.820312 641.023438 781.277344 639.339844 C 779.734375 637.65625 778.113281 636.046875 776.417969 634.519531 C 774.71875 632.988281 772.953125 631.542969 771.121094 630.179688 C 769.285156 628.816406 767.390625 627.546875 765.433594 626.363281 C 763.480469 625.179688 761.472656 624.09375 759.414062 623.105469 C 757.355469 622.113281 755.253906 621.222656 753.113281 620.429688 C 750.96875 619.636719 748.792969 618.949219 746.585938 618.367188 C 744.375 617.78125 742.144531 617.300781 739.890625 616.929688 C 739.558594 616.871094 739.222656 616.847656 738.886719 616.855469 C 738.546875 616.863281 738.214844 616.902344 737.882812 616.976562 C 737.554688 617.050781 737.234375 617.15625 736.925781 617.292969 C 736.617188 617.425781 736.324219 617.59375 736.046875 617.785156 C 735.773438 617.980469 735.515625 618.199219 735.285156 618.445312 C 735.050781 618.6875 734.84375 618.953125 734.664062 619.238281 C 734.480469 619.523438 734.328125 619.824219 734.207031 620.140625 C 734.085938 620.453125 733.996094 620.777344 733.9375 621.109375 C 733.878906 621.445312 733.855469 621.777344 733.863281 622.117188 C 733.871094 622.453125 733.910156 622.789062 733.984375 623.117188 C 734.058594 623.449219 734.164062 623.765625 734.296875 624.074219 C 734.433594 624.386719 734.601562 624.675781 734.792969 624.953125 C 734.988281 625.230469 735.207031 625.484375 735.453125 625.71875 C 735.695312 625.953125 735.960938 626.160156 736.246094 626.339844 C 736.53125 626.519531 736.832031 626.671875 737.144531 626.796875 C 737.460938 626.917969 737.785156 627.007812 738.117188 627.066406 C 739.992188 627.421875 741.867188 627.875 743.742188 628.382812 C 745.414062 628.816406 747.066406 629.320312 748.695312 629.890625 C 750.324219 630.464844 751.929688 631.101562 753.507812 631.808594 C 755.082031 632.515625 756.628906 633.285156 758.140625 634.121094 C 759.652344 634.957031 761.125 635.855469 762.5625 636.8125 C 764 637.773438 765.394531 638.789062 766.746094 639.863281 C 768.097656 640.941406 769.402344 642.070312 770.660156 643.253906 C 771.917969 644.441406 773.125 645.675781 774.277344 646.960938 C 775.433594 648.246094 776.53125 649.578125 777.574219 650.957031 C 778.617188 652.335938 779.597656 653.753906 780.523438 655.214844 C 781.445312 656.675781 782.308594 658.171875 783.105469 659.703125 C 783.90625 661.234375 784.636719 662.796875 785.304688 664.390625 C 785.972656 665.984375 786.574219 667.601562 787.105469 669.246094 C 787.636719 670.890625 788.101562 672.554688 788.492188 674.238281 C 788.886719 675.917969 789.210938 677.613281 789.460938 679.324219 C 789.710938 681.035156 789.890625 682.75 790 684.476562 C 790.105469 686.199219 790.140625 687.925781 790.105469 689.652344 C 790.105469 691.476562 790.105469 693.300781 789.648438 695.128906 C 789.617188 695.453125 789.617188 695.777344 789.648438 696.101562 C 789.679688 696.429688 789.738281 696.75 789.832031 697.0625 C 789.925781 697.375 790.046875 697.675781 790.199219 697.964844 C 790.347656 698.257812 790.527344 698.527344 790.730469 698.785156 C 790.933594 699.039062 791.160156 699.273438 791.410156 699.484375 C 791.660156 699.695312 791.925781 699.882812 792.210938 700.042969 C 792.496094 700.203125 792.792969 700.332031 793.105469 700.4375 C 793.414062 700.539062 793.734375 700.609375 794.058594 700.652344 Z M 794.058594 700.652344 " fill-opacity="1" fill-rule="nonzero"/></svg>