<svg xmlns="http://www.w3.org/2000/svg" xmlns:xlink="http://www.w3.org/1999/xlink" width="1587" zoomAndPan="magnify" viewBox="0 0 1190.25 1683.749949" height="2245" preserveAspectRatio="xMidYMid meet" version="1.0"><defs><clipPath id="a52865c56f"><path d="M 459 475 L 934 475 L 934 1117.128906 L 459 1117.128906 Z M 459 475 " clip-rule="nonzero"/></clipPath></defs><g clip-path="url(#a52865c56f)"><path fill="#8f0e1f" d="M 481.3125 535.046875 C 481.3125 514.238281 498.222656 497.320312 519.023438 497.320312 L 813.515625 497.320312 C 834.316406 497.320312 851.222656 514.238281 851.222656 535.046875 L 851.222656 572.207031 L 836.089844 572.207031 L 836.089844 535.046875 C 836.089844 521.980469 826.617188 512.460938 813.515625 512.460938 L 519.023438 512.460938 C 505.964844 512.460938 496.449219 521.980469 496.449219 535.046875 L 496.449219 969.042969 C 496.449219 982.109375 505.964844 991.625 519.023438 991.625 L 813.515625 991.625 C 826.617188 991.625 836.089844 982.109375 836.089844 969.042969 L 836.089844 929.847656 L 851.222656 929.847656 L 851.222656 1057.644531 C 851.222656 1078.453125 834.316406 1095.367188 813.515625 1095.367188 L 519.023438 1095.367188 C 498.222656 1095.367188 481.3125 1078.453125 481.3125 1057.644531 Z M 813.945312 572.207031 L 582.074219 572.207031 C 561.574219 572.207031 544.925781 588.90625 544.925781 609.367188 L 544.925781 892.6875 C 544.925781 913.191406 561.574219 929.847656 582.074219 929.847656 L 813.945312 929.847656 L 813.945312 955.417969 L 813.515625 969.476562 L 518.589844 969.042969 L 519.023438 534.613281 L 813.945312 535.046875 Z M 911.160156 609.367188 L 911.160156 892.6875 C 911.160156 900.992188 904.414062 907.699219 896.152344 907.699219 L 582.074219 907.699219 C 573.8125 907.699219 567.066406 900.992188 567.066406 892.6875 L 567.066406 609.367188 C 567.066406 601.105469 573.8125 594.355469 582.074219 594.355469 L 896.152344 594.355469 C 904.414062 594.355469 911.160156 601.105469 911.160156 609.367188 Z M 519.023438 1117.515625 L 813.515625 1117.515625 C 846.511719 1117.515625 873.363281 1090.652344 873.363281 1057.644531 L 873.363281 929.847656 L 896.152344 929.847656 C 916.609375 929.847656 933.300781 913.191406 933.300781 892.6875 L 933.300781 609.367188 C 933.300781 588.90625 916.609375 572.207031 896.152344 572.207031 L 873.363281 572.207031 L 873.363281 535.046875 C 873.363281 502.035156 846.511719 475.171875 813.515625 475.171875 L 519.023438 475.171875 C 486.027344 475.171875 459.171875 502.035156 459.171875 535.046875 L 459.171875 1057.644531 C 459.171875 1090.652344 486.027344 1117.515625 519.023438 1117.515625 " fill-opacity="1" fill-rule="nonzero"/></g><path fill="#8f0e1f" d="M 670.808594 1026.796875 C 680.019531 1026.796875 687.5 1034.28125 687.5 1043.496094 C 687.5 1052.710938 680.019531 1060.238281 670.808594 1060.238281 C 661.597656 1060.238281 654.074219 1052.710938 654.074219 1043.496094 C 654.074219 1034.28125 661.597656 1026.796875 670.808594 1026.796875 Z M 670.808594 1082.386719 C 692.214844 1082.386719 709.640625 1064.953125 709.640625 1043.496094 C 709.640625 1022.082031 692.214844 1004.648438 670.808594 1004.648438 C 649.359375 1004.648438 631.933594 1022.082031 631.933594 1043.496094 C 631.933594 1064.953125 649.359375 1082.386719 670.808594 1082.386719 " fill-opacity="1" fill-rule="nonzero"/><path fill="#8f0e1f" d="M 601.359375 663.703125 L 779.222656 663.703125 C 785.320312 663.703125 790.292969 658.730469 790.292969 652.628906 C 790.292969 646.53125 785.320312 641.554688 779.222656 641.554688 L 601.359375 641.554688 C 595.261719 641.554688 590.289062 646.53125 590.289062 652.628906 C 590.289062 658.730469 595.261719 663.703125 601.359375 663.703125 " fill-opacity="1" fill-rule="nonzero"/><path fill="#8f0e1f" d="M 808.714844 721.199219 L 866.359375 721.199219 C 872.457031 721.199219 877.429688 716.222656 877.429688 710.125 C 877.429688 703.980469 872.457031 699.050781 866.359375 699.050781 L 808.714844 699.050781 C 802.574219 699.050781 797.644531 703.980469 797.644531 710.125 C 797.644531 716.222656 802.574219 721.199219 808.714844 721.199219 " fill-opacity="1" fill-rule="nonzero"/><path fill="#8f0e1f" d="M 601.359375 721.199219 L 764.519531 721.199219 C 770.617188 721.199219 775.589844 716.222656 775.589844 710.125 C 775.589844 703.980469 770.617188 699.050781 764.519531 699.050781 L 601.359375 699.050781 C 595.261719 699.050781 590.289062 703.980469 590.289062 710.125 C 590.289062 716.222656 595.261719 721.199219 601.359375 721.199219 " fill-opacity="1" fill-rule="nonzero"/><path fill="#8f0e1f" d="M 601.359375 763.898438 L 674.398438 763.898438 C 680.496094 763.898438 685.46875 758.964844 685.46875 752.824219 C 685.46875 746.722656 680.496094 741.75 674.398438 741.75 L 601.359375 741.75 C 595.261719 741.75 590.289062 746.722656 590.289062 752.824219 C 590.289062 758.964844 595.261719 763.898438 601.359375 763.898438 " fill-opacity="1" fill-rule="nonzero"/><path fill="#8f0e1f" d="M 866.359375 741.75 L 718.59375 741.75 C 712.453125 741.75 707.523438 746.722656 707.523438 752.824219 C 707.523438 758.964844 712.453125 763.898438 718.59375 763.898438 L 866.359375 763.898438 C 872.457031 763.898438 877.429688 758.964844 877.429688 752.824219 C 877.429688 746.722656 872.457031 741.75 866.359375 741.75 " fill-opacity="1" fill-rule="nonzero"/><path fill="#8f0e1f" d="M 866.359375 784.492188 L 808.714844 784.492188 C 802.574219 784.492188 797.644531 789.421875 797.644531 795.566406 C 797.644531 801.664062 802.574219 806.640625 808.714844 806.640625 L 866.359375 806.640625 C 872.457031 806.640625 877.429688 801.664062 877.429688 795.566406 C 877.429688 789.421875 872.457031 784.492188 866.359375 784.492188 " fill-opacity="1" fill-rule="nonzero"/><path fill="#8f0e1f" d="M 601.359375 806.640625 L 764.519531 806.640625 C 770.617188 806.640625 775.589844 801.664062 775.589844 795.566406 C 775.589844 789.421875 770.617188 784.492188 764.519531 784.492188 L 601.359375 784.492188 C 595.261719 784.492188 590.289062 789.421875 590.289062 795.566406 C 590.289062 801.664062 595.261719 806.640625 601.359375 806.640625 " fill-opacity="1" fill-rule="nonzero"/><path fill="#8f0e1f" d="M 849.105469 869.800781 L 785.492188 869.800781 C 781.125 869.800781 777.707031 866.382812 777.707031 862.015625 C 777.707031 857.644531 781.125 854.226562 785.492188 854.226562 L 849.105469 854.226562 C 853.515625 854.226562 856.933594 857.644531 856.933594 862.015625 C 856.933594 866.382812 853.515625 869.800781 849.105469 869.800781 Z M 849.105469 832.078125 L 785.492188 832.078125 C 768.972656 832.078125 755.566406 845.53125 755.566406 862.015625 C 755.566406 878.539062 768.972656 891.953125 785.492188 891.953125 L 849.105469 891.953125 C 865.625 891.953125 879.074219 878.539062 879.074219 862.015625 C 879.074219 845.53125 865.625 832.078125 849.105469 832.078125 " fill-opacity="1" fill-rule="nonzero"/></svg>