<svg xmlns="http://www.w3.org/2000/svg" xmlns:xlink="http://www.w3.org/1999/xlink" width="1587" zoomAndPan="magnify" viewBox="0 0 1190.25 1683.749949" height="2245" preserveAspectRatio="xMidYMid meet" version="1.0"><defs><clipPath id="5301dad513"><path d="M 320.773438 493.355469 L 682 493.355469 L 682 854 L 320.773438 854 Z M 320.773438 493.355469 " clip-rule="nonzero"/></clipPath></defs><path fill="#8f0e1f" d="M 597.625 799.871094 L 627.277344 770.21875 L 687.480469 830.417969 L 657.828125 860.074219 Z M 597.625 799.871094 " fill-opacity="1" fill-rule="nonzero"/><path fill="#8f0e1f" d="M 782.554688 891.851562 C 795.660156 904.953125 795.660156 926.214844 782.554688 939.335938 L 766.734375 955.140625 C 753.613281 968.257812 732.371094 968.257812 719.269531 955.140625 L 634.480469 870.332031 C 621.359375 857.210938 621.359375 835.96875 634.460938 822.863281 L 650.28125 807.042969 C 663.386719 793.941406 684.664062 793.941406 697.769531 807.042969 Z M 782.554688 891.851562 " fill-opacity="1" fill-rule="nonzero"/><g clip-path="url(#5301dad513)"><path fill="#8f0e1f" d="M 500.863281 493.136719 C 401.261719 493.136719 320.554688 573.847656 320.554688 673.445312 C 320.554688 773.046875 401.261719 853.773438 500.863281 853.773438 C 600.464844 853.773438 681.191406 773.046875 681.191406 673.445312 C 681.191406 573.847656 600.464844 493.136719 500.863281 493.136719 Z M 500.863281 820.402344 C 419.675781 820.402344 353.890625 754.632812 353.890625 673.445312 C 353.890625 592.257812 419.675781 526.488281 500.863281 526.488281 C 582.050781 526.488281 647.839844 592.257812 647.839844 673.445312 C 647.839844 754.632812 582.050781 820.402344 500.863281 820.402344 Z M 500.863281 820.402344 " fill-opacity="1" fill-rule="nonzero"/></g><path fill="#8f0e1f" d="M 537.835938 762.699219 C 465.910156 762.699219 407.566406 704.375 407.566406 632.429688 C 407.566406 630.519531 407.769531 628.644531 407.859375 626.734375 C 398.359375 642.097656 392.792969 660.160156 392.792969 679.527344 C 392.792969 735.15625 437.886719 780.230469 493.496094 780.230469 C 514.976562 780.230469 534.824219 773.46875 551.195312 762.019531 C 546.804688 762.5 542.339844 762.699219 537.835938 762.699219 Z M 537.835938 762.699219 " fill-opacity="1" fill-rule="nonzero"/></svg>