<svg xmlns="http://www.w3.org/2000/svg" xmlns:xlink="http://www.w3.org/1999/xlink" width="1587" zoomAndPan="magnify" viewBox="0 0 1190.25 1683.749949" height="2245" preserveAspectRatio="xMidYMid meet" version="1.0"><defs><clipPath id="788a7d9f2f"><path d="M 320.773438 615.917969 L 796.726562 615.917969 L 796.726562 1002.671875 L 320.773438 1002.671875 Z M 320.773438 615.917969 " clip-rule="nonzero"/></clipPath></defs><g clip-path="url(#788a7d9f2f)"><path fill="#8f0e1f" d="M 737.445312 792.371094 C 736.042969 791.800781 734.460938 791.863281 733.109375 792.550781 C 718.976562 799.714844 703.394531 804.328125 686.769531 806.285156 C 660.179688 783.78125 622.308594 769.683594 580.335938 769.683594 C 572.121094 769.683594 564.058594 770.230469 556.210938 771.269531 C 569.253906 755.128906 576.304688 736.265625 576.304688 716.863281 C 576.304688 702.003906 572.21875 687.886719 564.890625 675.167969 C 584.988281 645.445312 625.410156 626.390625 668.921875 626.390625 C 733.570312 626.390625 786.167969 666.980469 786.167969 716.863281 C 786.167969 736.46875 778.144531 755.128906 762.972656 770.832031 C 761.617188 772.234375 761.15625 774.269531 761.765625 776.121094 L 771.71875 806.257812 Z M 580.335938 989 C 553.96875 989 528.421875 983.113281 506.449219 971.980469 C 505.703125 971.601562 504.890625 971.414062 504.078125 971.414062 C 503.40625 971.414062 502.746094 971.539062 502.109375 971.792969 L 461.316406 988.328125 L 473.238281 952.226562 C 473.847656 950.382812 473.378906 948.347656 472.03125 946.945312 C 454.503906 928.804688 445.242188 907.238281 445.242188 884.578125 C 445.242188 827.003906 505.84375 780.164062 580.335938 780.164062 C 620.675781 780.164062 656.9375 793.90625 681.707031 815.644531 C 681.800781 815.730469 681.890625 815.8125 681.988281 815.890625 C 702.796875 834.261719 715.425781 858.300781 715.425781 884.578125 C 715.425781 942.160156 654.824219 989 580.335938 989 Z M 384.390625 792.550781 C 383.039062 791.867188 381.453125 791.804688 380.054688 792.371094 L 345.78125 806.257812 L 355.734375 776.121094 C 356.34375 774.269531 355.878906 772.234375 354.527344 770.832031 C 339.355469 755.128906 331.332031 736.46875 331.332031 716.863281 C 331.332031 666.980469 383.929688 626.390625 448.578125 626.390625 C 513.226562 626.390625 565.824219 666.980469 565.824219 716.863281 C 565.824219 737.855469 556.277344 758.234375 538.953125 774.421875 C 514.53125 780.144531 492.773438 790.796875 475.539062 804.917969 C 466.746094 806.519531 457.6875 807.335938 448.578125 807.335938 C 425.671875 807.335938 403.476562 802.222656 384.390625 792.550781 Z M 772.691406 775.789062 C 788.375 758.574219 796.648438 738.265625 796.648438 716.863281 C 796.648438 661.199219 739.347656 615.910156 668.921875 615.910156 C 622.992188 615.910156 581.558594 634.835938 558.691406 665.769531 C 536.46875 635.957031 495.433594 615.910156 448.578125 615.910156 C 378.148438 615.910156 320.851562 661.199219 320.851562 716.863281 C 320.851562 738.265625 329.125 758.570312 344.808594 775.789062 L 332.277344 813.726562 C 331.636719 815.664062 332.183594 817.796875 333.671875 819.195312 C 334.664062 820.121094 335.949219 820.609375 337.253906 820.609375 C 337.917969 820.609375 338.585938 820.484375 339.222656 820.226562 L 381.804688 802.96875 C 401.855469 812.6875 424.886719 817.820312 448.578125 817.820312 C 453.230469 817.820312 457.875 817.609375 462.484375 817.21875 C 445.058594 836.15625 434.761719 859.4375 434.761719 884.578125 C 434.761719 909.039062 444.273438 932.253906 462.308594 951.910156 L 447.8125 995.792969 C 447.171875 997.734375 447.71875 999.867188 449.207031 1001.265625 C 450.199219 1002.191406 451.484375 1002.679688 452.789062 1002.679688 C 453.453125 1002.679688 454.121094 1002.554688 454.757812 1002.296875 L 503.859375 982.394531 C 526.800781 993.578125 553.183594 999.480469 580.335938 999.480469 C 660.605469 999.480469 725.90625 947.9375 725.90625 884.578125 C 725.90625 858.652344 714.964844 834.703125 696.539062 815.457031 C 710.386719 813.0625 723.515625 808.882812 735.699219 802.96875 L 778.28125 820.226562 C 778.914062 820.484375 779.582031 820.609375 780.246094 820.609375 C 781.550781 820.609375 782.835938 820.121094 783.828125 819.195312 C 785.316406 817.796875 785.863281 815.664062 785.222656 813.726562 L 772.691406 775.789062 " fill-opacity="1" fill-rule="nonzero"/></g><path fill="#8f0e1f" d="M 639.953125 880.28125 C 639.871094 880.503906 639.800781 880.78125 639.746094 881.011719 C 639.683594 881.316406 632.867188 911.171875 580.335938 939.089844 C 527.804688 911.171875 520.980469 881.316406 520.929688 881.054688 C 520.875 880.792969 520.804688 880.535156 520.714844 880.28125 C 519.636719 877.261719 519.082031 874.085938 519.082031 870.835938 C 519.082031 855.386719 531.644531 842.828125 547.085938 842.828125 C 562.53125 842.828125 575.097656 855.386719 575.097656 870.835938 C 575.097656 873.730469 577.441406 876.074219 580.335938 876.074219 C 583.230469 876.074219 585.574219 873.730469 585.574219 870.835938 C 585.574219 855.386719 598.140625 842.828125 613.574219 842.828125 C 629.019531 842.828125 641.585938 855.386719 641.585938 870.835938 C 641.585938 874.085938 641.03125 877.261719 639.953125 880.28125 Z M 613.574219 832.34375 C 599.417969 832.34375 587.015625 840.035156 580.335938 851.460938 C 573.652344 840.035156 561.253906 832.34375 547.085938 832.34375 C 525.871094 832.34375 508.601562 849.609375 508.601562 870.835938 C 508.601562 875.175781 509.320312 879.4375 510.738281 883.5 C 511.765625 887.878906 521.132812 920.324219 577.929688 949.664062 C 578.6875 950.054688 579.507812 950.246094 580.335938 950.246094 C 581.164062 950.246094 581.984375 950.054688 582.738281 949.664062 C 639.535156 920.324219 648.90625 887.875 649.933594 883.5 C 651.347656 879.4375 652.066406 875.175781 652.066406 870.835938 C 652.066406 849.609375 634.796875 832.34375 613.574219 832.34375 " fill-opacity="1" fill-rule="nonzero"/><path fill="#8f0e1f" d="M 461.433594 741.804688 L 461.433594 717.246094 C 461.433594 708.570312 468.488281 701.515625 477.164062 701.515625 L 493.332031 701.515625 C 499.082031 701.515625 503.753906 706.195312 503.753906 711.9375 L 503.753906 747.109375 C 503.753906 752.855469 499.082031 757.53125 493.332031 757.53125 L 477.164062 757.53125 C 468.488281 757.53125 461.433594 750.476562 461.433594 741.804688 Z M 486.621094 768.011719 L 493.332031 768.011719 C 504.855469 768.011719 514.234375 758.632812 514.234375 747.109375 L 514.234375 711.9375 C 514.234375 700.414062 504.855469 691.035156 493.332031 691.035156 L 474.332031 691.035156 L 480.988281 667.074219 C 482.457031 661.785156 481.394531 656.246094 478.070312 651.871094 C 474.75 647.503906 469.695312 644.992188 463.96875 644.992188 C 457.214844 644.992188 451.011719 648.953125 448.171875 655.082031 L 438.15625 676.671875 C 434.105469 685.394531 425.273438 691.035156 415.652344 691.035156 L 388.164062 691.035156 C 385.269531 691.035156 382.921875 693.378906 382.921875 696.273438 C 382.921875 699.167969 385.269531 701.515625 388.164062 701.515625 L 415.652344 701.515625 C 429.335938 701.515625 441.902344 693.492188 447.660156 681.082031 L 457.675781 659.492188 C 458.8125 657.050781 461.28125 655.476562 464.207031 655.476562 C 466.394531 655.476562 468.40625 656.472656 469.730469 658.214844 C 471.050781 659.953125 471.472656 662.160156 470.890625 664.269531 L 462.394531 694.875 C 462.316406 695.152344 462.269531 695.433594 462.238281 695.71875 C 455.425781 700.453125 450.957031 708.335938 450.957031 717.246094 L 450.957031 741.804688 C 450.957031 747.703125 452.914062 753.152344 456.210938 757.53125 L 388.164062 757.53125 C 385.269531 757.53125 382.921875 759.878906 382.921875 762.773438 C 382.921875 765.667969 385.269531 768.011719 388.164062 768.011719 L 486.621094 768.011719 " fill-opacity="1" fill-rule="nonzero"/><path fill="#8f0e1f" d="M 617.734375 708.1875 C 605.089844 708.1875 605.070312 727.839844 617.734375 727.839844 C 630.375 727.839844 630.398438 708.1875 617.734375 708.1875 " fill-opacity="1" fill-rule="nonzero"/><path fill="#8f0e1f" d="M 675.074219 708.1875 C 662.433594 708.1875 662.410156 727.839844 675.074219 727.839844 C 687.714844 727.839844 687.742188 708.1875 675.074219 708.1875 " fill-opacity="1" fill-rule="nonzero"/><path fill="#8f0e1f" d="M 732.414062 708.1875 C 719.773438 708.1875 719.753906 727.839844 732.414062 727.839844 C 745.058594 727.839844 745.082031 708.1875 732.414062 708.1875 " fill-opacity="1" fill-rule="nonzero"/></svg>