<svg xmlns="http://www.w3.org/2000/svg" xmlns:xlink="http://www.w3.org/1999/xlink" width="1587" zoomAndPan="magnify" viewBox="0 0 1190.25 1683.749949" height="2245" preserveAspectRatio="xMidYMid meet" version="1.0"><defs><clipPath id="2e8777727a"><path d="M 0 0.40625 L 1189.5 0.40625 L 1189.5 1683.09375 L 0 1683.09375 Z M 0 0.40625 " clip-rule="nonzero"/></clipPath><clipPath id="ee432fb42b"><path d="M 410.71875 669 L 652.816406 669 L 652.816406 894 L 410.71875 894 Z M 410.71875 669 " clip-rule="nonzero"/></clipPath></defs><g clip-path="url(#2e8777727a)"><path fill="#ffffff" d="M 0 0.40625 L 1190.25 0.40625 L 1190.25 8446.832031 L 0 8446.832031 Z M 0 0.40625 " fill-opacity="1" fill-rule="nonzero"/><path fill="#ffffff" d="M 0 0.40625 L 1189.5 0.40625 L 1189.5 1683.09375 L 0 1683.09375 Z M 0 0.40625 " fill-opacity="1" fill-rule="nonzero"/><path fill="#ffffff" d="M 0 0.40625 L 1189.5 0.40625 L 1189.5 1683.09375 L 0 1683.09375 Z M 0 0.40625 " fill-opacity="1" fill-rule="nonzero"/></g><g clip-path="url(#ee432fb42b)"><path fill="#ffffff" d="M 422.175781 679.226562 L 641.316406 679.226562 C 642.390625 679.226562 643.253906 680.0625 643.253906 681.140625 L 643.253906 829.558594 C 643.253906 830.613281 642.390625 831.453125 641.316406 831.453125 L 422.175781 831.453125 C 421.121094 831.453125 420.261719 830.613281 420.261719 829.558594 L 420.261719 681.140625 C 420.261719 680.0625 421.121094 679.226562 422.175781 679.226562 Z M 415.511719 669.675781 C 412.867188 669.675781 410.71875 671.804688 410.71875 674.449219 L 410.71875 836.269531 C 410.71875 838.914062 412.867188 841.042969 415.492188 841.042969 C 415.511719 841.042969 415.511719 841.042969 415.511719 841.042969 L 507.546875 841.042969 C 510.1875 841.042969 512.339844 843.195312 512.339844 845.839844 L 512.339844 854.527344 C 512.339844 870.378906 499.484375 883.242188 483.644531 883.242188 L 481.386719 883.242188 L 481.386719 893.046875 L 582.148438 893.046875 L 582.148438 883.242188 L 579.890625 883.242188 C 564.050781 883.242188 551.199219 870.378906 551.199219 854.527344 L 551.199219 845.839844 C 551.199219 843.195312 553.347656 841.042969 555.992188 841.042969 L 648.046875 841.042969 C 650.667969 841.042969 652.816406 838.914062 652.816406 836.269531 L 652.816406 674.449219 C 652.816406 671.804688 650.667969 669.675781 648.046875 669.675781 L 415.511719 669.675781 " fill-opacity="1" fill-rule="nonzero"/></g><path fill="#ffffff" d="M 451.898438 796.566406 C 450.375 796.589844 449.171875 797.835938 449.191406 799.363281 C 449.214844 800.847656 450.417969 802.050781 451.898438 802.074219 L 502.105469 802.074219 C 503.632812 802.050781 504.835938 800.804688 504.816406 799.296875 C 504.792969 797.792969 503.589844 796.589844 502.105469 796.566406 L 451.898438 796.566406 " fill-opacity="1" fill-rule="nonzero"/><path fill="#ffffff" d="M 451.898438 784.933594 C 450.375 784.953125 449.171875 786.199219 449.191406 787.726562 C 449.214844 789.210938 450.417969 790.417969 451.898438 790.4375 L 502.105469 790.4375 C 503.632812 790.417969 504.835938 789.167969 504.816406 787.664062 C 504.792969 786.15625 503.589844 784.953125 502.105469 784.933594 L 451.898438 784.933594 " fill-opacity="1" fill-rule="nonzero"/><path fill="#ffffff" d="M 479.753906 700.902344 L 479.753906 734.195312 L 508.554688 750.820312 C 516.851562 733.378906 509.480469 712.519531 492.046875 704.214844 C 488.179688 702.367188 484.011719 701.246094 479.753906 700.902344 " fill-opacity="1" fill-rule="nonzero"/><path fill="#ffffff" d="M 474.253906 700.902344 L 474.253906 737.359375 L 505.804688 755.597656 C 494.863281 771.511719 473.113281 775.53125 457.207031 764.585938 C 441.304688 753.640625 437.261719 731.875 448.203125 715.957031 C 454.179688 707.269531 463.742188 701.742188 474.253906 700.902344 " fill-opacity="1" fill-rule="nonzero"/><path fill="#ffffff" d="M 581.566406 744.328125 L 569.574219 725.3125 C 567.960938 722.734375 564.566406 721.980469 561.988281 723.59375 C 561.492188 723.894531 561.0625 724.28125 560.699219 724.734375 L 545.222656 743.378906 L 540.964844 739.851562 L 556.464844 721.207031 C 560.351562 716.539062 567.296875 715.894531 571.960938 719.785156 C 572.839844 720.519531 573.613281 721.398438 574.238281 722.367188 L 586.230469 741.378906 C 587.863281 743.960938 591.238281 744.734375 593.816406 743.101562 C 594.398438 742.734375 594.894531 742.285156 595.28125 741.746094 L 613.074219 717.957031 L 610.433594 715.980469 L 620.492188 712.625 L 620.105469 723.25 L 617.480469 721.269531 L 599.6875 745.035156 C 596.054688 749.917969 589.152344 750.90625 584.296875 747.273438 C 583.222656 746.457031 582.296875 745.464844 581.589844 744.328125 L 581.566406 744.328125 " fill-opacity="1" fill-rule="nonzero"/><path fill="#ffffff" d="M 607.875 742.800781 L 618.363281 742.800781 L 618.363281 792.738281 L 607.875 792.738281 L 607.875 742.800781 " fill-opacity="1" fill-rule="nonzero"/><path fill="#ffffff" d="M 583.566406 792.738281 L 583.566406 764.328125 L 594.074219 764.328125 L 594.074219 792.738281 L 583.566406 792.738281 " fill-opacity="1" fill-rule="nonzero"/><path fill="#ffffff" d="M 559.257812 792.738281 L 559.257812 736.496094 L 569.765625 736.496094 L 569.765625 792.738281 L 559.257812 792.738281 " fill-opacity="1" fill-rule="nonzero"/><path fill="#ffffff" d="M 545.457031 792.738281 L 534.96875 792.738281 L 534.96875 752.347656 L 545.457031 752.347656 L 545.457031 792.738281 " fill-opacity="1" fill-rule="nonzero"/><path fill="#8f0e1f" d="M 976.441406 416.679688 C 973.304688 414.535156 969.316406 414.0625 965.777344 415.457031 L 878.816406 449.277344 L 809.132812 379.59375 L 811.636719 330.285156 C 811.886719 325.421875 809.042969 320.9375 804.550781 319.074219 L 710.222656 279.953125 C 705.730469 278.125 700.527344 279.257812 697.269531 282.875 L 664.117188 319.566406 L 562.511719 319.566406 L 529.359375 282.875 C 526.089844 279.257812 520.921875 278.125 516.402344 279.957031 L 422.078125 319.074219 C 417.582031 320.9375 414.742188 325.421875 414.988281 330.285156 L 417.492188 379.59375 L 345.671875 451.417969 L 336.066406 450.960938 L 261.3125 418.105469 C 257.738281 416.535156 253.636719 416.859375 250.390625 419.003906 C 247.144531 421.128906 245.179688 424.746094 245.179688 428.632812 L 245.179688 647.214844 C 245.179688 651.875 247.988281 656.078125 252.300781 657.851562 L 285.667969 671.605469 L 285.667969 698.015625 L 248.976562 731.171875 C 245.359375 734.4375 244.191406 739.628906 246.054688 744.125 L 285.175781 838.449219 C 287.027344 842.945312 291.152344 845.832031 296.386719 845.539062 L 345.695312 843.035156 L 417.496094 914.835938 L 414.992188 964.144531 C 414.742188 969.007812 417.585938 973.492188 422.082031 975.355469 L 516.40625 1014.476562 C 520.910156 1016.316406 526.101562 1015.171875 529.359375 1011.554688 L 562.515625 974.863281 L 664.121094 974.863281 L 697.273438 1011.554688 C 699.507812 1014.027344 702.621094 1015.351562 705.8125 1015.351562 C 707.296875 1015.351562 708.800781 1015.058594 710.226562 1014.476562 L 804.554688 975.359375 C 809.046875 973.492188 811.890625 969.011719 811.644531 964.144531 L 809.136719 914.835938 L 880.9375 843.035156 L 930.246094 845.542969 C 935.390625 845.789062 939.59375 842.945312 941.460938 838.453125 L 980.578125 744.125 C 982.445312 739.632812 981.273438 734.441406 977.65625 731.171875 L 940.964844 698.019531 L 940.964844 632.796875 L 973.816406 621.070312 C 978.398438 619.441406 981.453125 615.105469 981.453125 610.242188 L 981.453125 426.175781 C 981.449219 422.375 979.574219 418.824219 976.441406 416.679688 Z M 437.378906 392.242188 C 439.683594 389.941406 440.894531 386.773438 440.738281 383.527344 L 438.378906 337.230469 L 517.730469 304.324219 L 548.859375 338.78125 C 551.039062 341.195312 554.140625 342.578125 557.398438 342.578125 L 669.230469 342.578125 C 672.488281 342.578125 675.589844 341.195312 677.769531 338.78125 L 708.898438 304.324219 L 788.25 337.230469 L 785.890625 383.527344 C 785.730469 386.773438 786.945312 389.941406 789.25 392.242188 L 855.390625 458.382812 L 802.359375 479.007812 C 754.230469 425.003906 685.84375 394.121094 613.3125 394.121094 C 536.671875 394.121094 465.917969 427.835938 417.65625 486.816406 L 365.660156 463.964844 Z M 268.1875 446.261719 L 473.679688 536.566406 C 481.847656 540.160156 490.96875 540.484375 499.375 537.40625 L 581.441406 507.558594 C 595.820312 502.351562 611.445312 501.472656 626.214844 504.695312 L 560.882812 537.296875 C 551.859375 541.8125 544.738281 548.992188 540.324219 557.976562 L 518.023438 602.601562 C 514.742188 609.128906 514.203125 616.511719 516.496094 623.386719 C 518.773438 630.238281 523.628906 635.820312 530.1875 639.113281 C 539.851562 643.914062 551.714844 642.417969 559.296875 636.070312 L 607.023438 597.863281 L 633.558594 591.199219 C 640.792969 589.402344 648.199219 591.109375 654.410156 596.265625 L 712.167969 639.292969 C 722.714844 647.160156 733.75 654.078125 744.894531 659.820312 L 776.46875 676.355469 C 777 678.828125 776.6875 681.441406 775.429688 683.917969 L 770.453125 694.097656 C 769.058594 696.835938 766.664062 698.871094 763.710938 699.847656 C 760.765625 700.828125 757.667969 700.589844 754.945312 699.1875 L 744.707031 694.007812 C 744.691406 694 744.679688 693.988281 744.667969 693.984375 L 690.71875 666.953125 C 684.988281 664.132812 678.125 666.425781 675.273438 672.085938 C 672.429688 677.769531 674.730469 684.679688 680.40625 687.535156 L 734.285156 714.519531 C 739.972656 717.417969 742.265625 724.359375 739.320312 730.125 L 734.308594 740.269531 C 732.90625 743.058594 730.492188 745.125 727.523438 746.101562 C 724.636719 747.042969 721.523438 746.820312 718.816406 745.425781 L 708.582031 740.257812 C 708.574219 740.253906 708.5625 740.253906 708.554688 740.25 C 708.550781 740.25 708.550781 740.25 708.546875 740.25 L 660.339844 716.082031 C 654.65625 713.230469 647.734375 715.53125 644.90625 721.203125 C 642.050781 726.890625 644.355469 733.800781 650.027344 736.640625 L 698.15625 760.773438 C 704.03125 763.773438 706.785156 769.230469 705.3125 772.128906 L 701.132812 780.386719 C 700.539062 781.601562 699.214844 782.253906 698.203125 782.589844 C 695.179688 783.566406 691.371094 783.105469 687.832031 781.296875 L 656.996094 765.882812 C 656.988281 765.882812 656.984375 765.882812 656.976562 765.878906 L 630.085938 752.03125 C 624.4375 749.097656 617.492188 751.335938 614.59375 756.984375 C 611.6875 762.636719 613.898438 769.566406 619.550781 772.476562 L 646.703125 786.464844 C 649.398438 787.8125 651.421875 790.171875 652.398438 793.101562 C 653.378906 796.035156 653.164062 799.148438 651.847656 801.777344 C 650.410156 804.574219 648.050781 806.628906 644.984375 807.628906 C 642.152344 808.617188 639.097656 808.382812 636.269531 806.941406 L 604.46875 791.140625 C 604.464844 787.28125 603.707031 783.429688 602.125 779.777344 C 599.082031 772.722656 593.476562 767.285156 586.339844 764.445312 C 582.277344 762.832031 578.019531 762.285156 573.800781 762.574219 C 573.347656 760.796875 572.847656 759.019531 572.105469 757.300781 C 568.453125 748.839844 561.726562 742.3125 553.152344 738.898438 C 545.152344 735.734375 536.460938 735.773438 528.441406 738.757812 C 524.789062 731.375 518.617188 725.203125 510.382812 721.933594 C 501.820312 718.527344 492.4375 718.675781 483.96875 722.324219 C 481.585938 723.351562 479.40625 724.675781 477.359375 726.164062 C 473.75 721.667969 469.089844 717.925781 463.363281 715.652344 C 458.300781 713.652344 452.972656 713.039062 447.703125 713.496094 L 301.667969 653.308594 C 301.65625 653.300781 301.644531 653.296875 301.632812 653.289062 L 268.1875 639.507812 Z M 578.960938 798.65625 C 578.960938 798.65625 578.972656 798.65625 578.984375 798.65625 L 574.714844 809.339844 L 578.949219 798.644531 L 568.261719 794.410156 L 570.386719 789.050781 C 571.152344 787.128906 572.632812 786.253906 573.441406 785.902344 C 573.9375 785.691406 574.746094 785.421875 575.734375 785.421875 C 576.375 785.421875 577.09375 785.53125 577.847656 785.835938 C 580.804688 787.003906 582.242188 790.351562 581.070312 793.296875 L 578.949219 798.65625 C 578.949219 798.65625 578.949219 798.65625 578.960938 798.65625 Z M 548.996094 780.566406 L 546.871094 785.917969 L 525.480469 777.433594 L 529.730469 766.738281 C 530.863281 763.886719 533.042969 761.636719 535.863281 760.425781 C 537.324219 759.785156 538.875 759.46875 540.425781 759.46875 C 541.851562 759.46875 543.289062 759.738281 544.660156 760.289062 C 547.511719 761.421875 549.761719 763.605469 550.984375 766.421875 C 552.199219 769.242188 552.242188 772.367188 551.109375 775.230469 L 549.015625 780.53125 C 549.007812 780.546875 549 780.554688 548.996094 780.566406 Z M 504.089844 768.953125 L 482.710938 760.46875 L 486.957031 749.773438 C 488.09375 746.910156 490.273438 744.671875 493.09375 743.449219 C 495.914062 742.234375 499.035156 742.179688 501.890625 743.324219 C 507.789062 745.664062 510.675781 752.359375 508.335938 758.257812 Z M 446.074219 737.179688 C 447.535156 736.539062 449.085938 736.226562 450.636719 736.226562 C 452.0625 736.226562 453.5 736.496094 454.871094 737.042969 C 460.769531 739.382812 463.65625 746.078125 461.308594 751.976562 L 439.941406 743.496094 C 441.078125 740.640625 443.246094 738.394531 446.074219 737.179688 Z M 921.75 711.667969 L 956.207031 742.796875 L 923.300781 822.148438 L 877.003906 819.789062 C 873.746094 819.664062 870.578125 820.84375 868.285156 823.148438 L 789.25 902.183594 C 786.945312 904.484375 785.734375 907.652344 785.890625 910.898438 L 788.25 957.195312 L 708.898438 990.105469 L 677.769531 955.648438 C 675.589844 953.230469 672.488281 951.847656 669.230469 951.847656 L 557.402344 951.847656 C 554.140625 951.847656 551.042969 953.230469 548.863281 955.648438 L 517.730469 990.105469 L 438.378906 957.195312 L 440.742188 910.898438 C 440.898438 907.652344 439.683594 904.484375 437.382812 902.183594 L 358.34375 823.148438 C 356.054688 820.84375 352.917969 819.664062 349.628906 819.789062 L 303.332031 822.148438 L 270.425781 742.796875 L 304.882812 711.667969 C 307.296875 709.484375 308.679688 706.386719 308.679688 703.128906 L 308.679688 681.085938 L 422.441406 727.972656 C 420.917969 730.15625 419.5625 732.464844 418.554688 735 C 416.285156 740.71875 416.371094 746.976562 418.824219 752.617188 C 421.261719 758.265625 425.742188 762.613281 431.449219 764.871094 L 452.839844 773.363281 L 452.851562 773.363281 C 455.59375 774.457031 458.457031 774.996094 461.324219 774.996094 C 462.457031 774.996094 463.585938 774.816406 464.710938 774.648438 C 467.1875 777.808594 470.394531 780.332031 474.222656 781.847656 L 495.613281 790.339844 C 495.625 790.339844 495.625 790.339844 495.625 790.339844 C 498.375 791.429688 501.242188 791.96875 504.105469 791.96875 C 505.246094 791.96875 506.378906 791.789062 507.507812 791.617188 C 509.933594 794.707031 513.097656 797.269531 517.003906 798.824219 L 538.382812 807.304688 C 541.15625 808.40625 544.023438 808.921875 546.84375 808.921875 C 547.96875 808.921875 549.039062 808.59375 550.144531 808.429688 C 552.585938 811.59375 555.804688 814.21875 559.785156 815.796875 L 570.457031 820.023438 C 573.210938 821.125 576.085938 821.671875 578.960938 821.671875 C 582.0625 821.671875 585.152344 821.03125 588.085938 819.773438 C 591.574219 818.269531 594.484375 815.902344 596.800781 813.023438 L 625.921875 827.492188 C 630.855469 830.007812 636.167969 831.277344 641.460938 831.277344 C 645.136719 831.277344 648.785156 830.660156 652.300781 829.449219 C 661.007812 826.617188 668.121094 820.503906 672.390625 812.148438 C 674.171875 808.582031 675.179688 804.785156 675.648438 800.929688 L 677.457031 801.832031 C 682.996094 804.652344 688.996094 806.09375 694.859375 806.09375 C 698.488281 806.09375 702.0625 805.542969 705.441406 804.429688 C 712.757812 802.003906 718.554688 797.09375 721.722656 790.679688 L 725.84375 782.523438 C 727.953125 778.359375 728.71875 773.851562 728.515625 769.324219 C 730.585938 769.042969 732.644531 768.628906 734.671875 767.960938 C 743.503906 765.085938 750.671875 758.929688 754.894531 750.558594 L 759.882812 740.449219 C 762.707031 734.917969 763.726562 728.984375 763.4375 723.179688 C 765.9375 722.929688 768.4375 722.507812 770.894531 721.710938 C 779.648438 718.832031 786.769531 712.746094 791.039062 704.386719 L 796.027344 694.183594 C 797.765625 690.765625 798.667969 687.101562 799.1875 683.394531 C 799.199219 683.390625 799.21875 683.394531 799.230469 683.386719 L 842.15625 668.066406 C 831.5 784.871094 732.335938 877.296875 613.3125 877.296875 C 519.695312 877.296875 436.1875 821.394531 400.566406 734.867188 C 398.148438 729 391.441406 726.238281 385.542969 728.609375 C 379.667969 731.023438 376.871094 737.753906 379.285156 743.628906 C 418.472656 838.808594 510.339844 900.304688 613.3125 900.304688 C 747.832031 900.304688 859.46875 793.027344 865.957031 659.566406 L 917.953125 641.007812 L 917.953125 703.128906 C 917.953125 706.386719 919.335938 709.488281 921.75 711.667969 Z M 958.441406 602.128906 L 795.4375 660.3125 L 755.5 639.40625 C 745.410156 634.203125 735.457031 627.957031 725.921875 620.847656 L 668.667969 578.222656 C 657.46875 568.839844 642.246094 565.324219 628 568.875 L 601.867188 575.445312 C 598.589844 576.132812 595.375 577.691406 592.667969 579.894531 L 544.730469 618.261719 C 543.695312 619.128906 542 619.285156 540.472656 618.53125 C 538.339844 617.453125 537.515625 615.039062 538.59375 612.902344 L 560.941406 568.191406 C 563.152344 563.683594 566.691406 560.113281 571.164062 557.875 L 639.683594 523.691406 C 645.941406 520.5 653.433594 519.398438 660.660156 520.511719 L 696.09375 526.488281 C 709.832031 528.789062 724.359375 528.207031 738.121094 524.8125 C 744.300781 523.296875 748.066406 517.070312 746.546875 510.90625 C 745.042969 504.726562 738.816406 500.894531 732.640625 502.480469 C 721.855469 505.121094 710.519531 505.589844 699.914062 503.792969 L 674.339844 499.480469 L 652.714844 489.4375 C 628.121094 477.898438 599.316406 476.617188 573.601562 485.929688 L 491.507812 515.792969 C 488.710938 516.804688 485.675781 516.714844 482.949219 515.511719 L 439.539062 496.433594 C 483.269531 445.863281 545.796875 417.128906 613.3125 417.128906 C 676.359375 417.128906 735.964844 442.785156 779.339844 487.960938 L 770.207031 491.511719 C 764.285156 493.816406 761.351562 500.476562 763.65625 506.398438 C 765.957031 512.320312 772.65625 515.261719 778.542969 512.949219 L 802.183594 503.757812 C 802.453125 503.679688 802.695312 503.546875 802.960938 503.453125 L 879.785156 473.578125 C 880.144531 473.457031 880.480469 473.332031 880.832031 473.171875 L 958.441406 442.992188 Z M 958.441406 602.128906 " fill-opacity="1" fill-rule="nonzero"/></svg>