<svg xmlns="http://www.w3.org/2000/svg" xmlns:xlink="http://www.w3.org/1999/xlink" width="1587" zoomAndPan="magnify" viewBox="0 0 1190.25 1683.749949" height="2245" preserveAspectRatio="xMidYMid meet" version="1.0"><defs><clipPath id="9f7ac6cb9e"><path d="M 0 0.40625 L 1189.5 0.40625 L 1189.5 1683.09375 L 0 1683.09375 Z M 0 0.40625 " clip-rule="nonzero"/></clipPath><clipPath id="83eb9c78a3"><path d="M 514 419.058594 L 675 419.058594 L 675 554 L 514 554 Z M 514 419.058594 " clip-rule="nonzero"/></clipPath><clipPath id="b1079fe6cf"><path d="M 798 676 L 932.492188 676 L 932.492188 837 L 798 837 Z M 798 676 " clip-rule="nonzero"/></clipPath><clipPath id="8ef26ba1e9"><path d="M 514 960 L 675 960 L 675 1094.382812 L 514 1094.382812 Z M 514 960 " clip-rule="nonzero"/></clipPath><clipPath id="e4d7070b8e"><path d="M 257.167969 676 L 392 676 L 392 837 L 257.167969 837 Z M 257.167969 676 " clip-rule="nonzero"/></clipPath></defs><g clip-path="url(#9f7ac6cb9e)"><path fill="#ffffff" d="M 0 0.40625 L 1189.5 0.40625 L 1189.5 1683.09375 L 0 1683.09375 Z M 0 0.40625 " fill-opacity="1" fill-rule="nonzero"/><path fill="#ffffff" d="M 0 0.40625 L 1189.5 0.40625 L 1189.5 1683.09375 L 0 1683.09375 Z M 0 0.40625 " fill-opacity="1" fill-rule="nonzero"/></g><path fill="#8f0e1f" d="M 594.824219 613.851562 C 537.910156 613.859375 491.609375 660.167969 491.609375 717.082031 C 491.609375 728.125 494.554688 738.332031 497.4375 746.863281 C 503.207031 763.925781 528.417969 795.316406 537.078125 805.796875 L 537.191406 835.050781 L 537.199219 835.050781 L 537.199219 899.597656 L 652.464844 899.597656 L 652.464844 835.050781 L 652.476562 835.050781 L 652.585938 805.796875 C 661.25 795.316406 686.460938 763.925781 692.230469 746.859375 C 695.113281 738.332031 698.058594 728.125 698.058594 717.082031 C 698.054688 660.167969 651.753906 613.859375 594.824219 613.851562 Z M 630.316406 877.449219 L 559.34375 877.449219 L 559.34375 835.046875 L 630.316406 835.046875 Z M 671.246094 739.769531 C 667.292969 751.476562 645.730469 779.628906 633.070312 794.621094 L 630.46875 797.699219 L 630.414062 812.902344 L 559.253906 812.902344 L 559.195312 797.699219 L 556.597656 794.621094 C 543.9375 779.628906 522.375 751.476562 518.417969 739.769531 C 516.113281 732.949219 513.757812 724.917969 513.757812 717.082031 C 513.757812 672.378906 550.125 636.007812 594.835938 636 C 639.542969 636.007812 675.910156 672.378906 675.910156 717.082031 C 675.910156 724.917969 673.550781 732.949219 671.246094 739.769531 Z M 671.246094 739.769531 " fill-opacity="1" fill-rule="nonzero"/><g clip-path="url(#83eb9c78a3)"><path fill="#8f0e1f" d="M 583.757812 461.460938 L 583.757812 553.386719 L 605.90625 553.386719 L 605.90625 461.460938 L 659.039062 514.59375 L 674.699219 498.933594 L 594.832031 419.070312 L 514.964844 498.929688 L 530.625 514.59375 Z M 583.757812 461.460938 " fill-opacity="1" fill-rule="nonzero"/></g><path fill="#8f0e1f" d="M 730.777344 605.117188 L 746.441406 620.773438 L 811.4375 555.773438 L 811.4375 630.914062 L 833.585938 630.914062 L 833.585938 517.964844 L 720.640625 517.964844 L 720.640625 540.113281 L 795.78125 540.113281 Z M 730.777344 605.117188 " fill-opacity="1" fill-rule="nonzero"/><g clip-path="url(#b1079fe6cf)"><path fill="#8f0e1f" d="M 852.617188 676.855469 L 836.953125 692.519531 L 890.085938 745.648438 L 798.160156 745.652344 L 798.160156 767.796875 L 890.085938 767.796875 L 836.953125 820.925781 L 852.613281 836.589844 L 932.480469 756.722656 Z M 852.617188 676.855469 " fill-opacity="1" fill-rule="nonzero"/></g><path fill="#8f0e1f" d="M 811.4375 957.671875 L 746.433594 892.667969 L 730.773438 908.332031 L 795.777344 973.328125 L 720.636719 973.328125 L 720.636719 995.476562 L 833.582031 995.476562 L 833.582031 882.53125 L 811.4375 882.53125 Z M 811.4375 957.671875 " fill-opacity="1" fill-rule="nonzero"/><g clip-path="url(#8ef26ba1e9)"><path fill="#8f0e1f" d="M 605.898438 1051.976562 L 605.894531 960.050781 L 583.75 960.050781 L 583.753906 1051.976562 L 530.617188 998.84375 L 514.960938 1014.503906 L 594.824219 1094.371094 L 674.691406 1014.507812 L 659.027344 998.84375 Z M 605.898438 1051.976562 " fill-opacity="1" fill-rule="nonzero"/></g><path fill="#8f0e1f" d="M 458.878906 908.320312 L 443.21875 892.664062 L 378.21875 957.667969 L 378.21875 882.523438 L 356.070312 882.523438 L 356.070312 995.472656 L 469.015625 995.472656 L 469.015625 973.328125 L 393.878906 973.328125 Z M 458.878906 908.320312 " fill-opacity="1" fill-rule="nonzero"/><g clip-path="url(#e4d7070b8e)"><path fill="#8f0e1f" d="M 391.5 767.785156 L 391.496094 745.640625 L 299.570312 745.644531 L 352.703125 692.511719 L 337.046875 676.847656 L 257.179688 756.714844 L 337.042969 836.582031 L 352.703125 820.917969 L 299.570312 767.789062 Z M 391.5 767.785156 " fill-opacity="1" fill-rule="nonzero"/></g><path fill="#8f0e1f" d="M 356.074219 630.90625 L 378.222656 630.90625 L 378.222656 555.769531 L 443.226562 620.769531 L 458.882812 605.109375 L 393.878906 540.109375 L 469.023438 540.109375 L 469.023438 517.960938 L 356.074219 517.960938 Z M 356.074219 630.90625 " fill-opacity="1" fill-rule="nonzero"/><path fill="#8f0e1f" d="M 537.984375 716.464844 L 567.023438 716.464844 L 567.023438 738.609375 L 537.984375 738.609375 Z M 537.984375 716.464844 " fill-opacity="1" fill-rule="nonzero"/><path fill="#8f0e1f" d="M 580.308594 716.464844 L 609.351562 716.464844 L 609.351562 738.609375 L 580.308594 738.609375 Z M 580.308594 716.464844 " fill-opacity="1" fill-rule="nonzero"/><path fill="#8f0e1f" d="M 622.632812 716.464844 L 651.675781 716.464844 L 651.675781 738.609375 L 622.632812 738.609375 Z M 622.632812 716.464844 " fill-opacity="1" fill-rule="nonzero"/></svg>