<svg xmlns="http://www.w3.org/2000/svg" xmlns:xlink="http://www.w3.org/1999/xlink" width="1587" zoomAndPan="magnify" viewBox="0 0 1190.25 1683.749949" height="2245" preserveAspectRatio="xMidYMid meet" version="1.0"><defs><clipPath id="e3b726d276"><path d="M 0 0.40625 L 1189.5 0.40625 L 1189.5 1683.09375 L 0 1683.09375 Z M 0 0.40625 " clip-rule="nonzero"/></clipPath><clipPath id="589e182e9b"><path d="M 325.511719 410.828125 L 864.421875 410.828125 L 864.421875 949.738281 L 325.511719 949.738281 Z M 325.511719 410.828125 " clip-rule="nonzero"/></clipPath></defs><g clip-path="url(#e3b726d276)"><path fill="#ffffff" d="M 0 0.40625 L 1189.5 0.40625 L 1189.5 1683.09375 L 0 1683.09375 Z M 0 0.40625 " fill-opacity="1" fill-rule="nonzero"/><path fill="#ffffff" d="M 0 0.40625 L 1189.5 0.40625 L 1189.5 1683.09375 L 0 1683.09375 Z M 0 0.40625 " fill-opacity="1" fill-rule="nonzero"/></g><g clip-path="url(#589e182e9b)"><path fill="#8f0e1f" d="M 846.777344 410.828125 L 690.765625 410.828125 C 681.035156 410.828125 673.121094 418.746094 673.121094 428.476562 L 673.121094 445.167969 L 458.535156 445.167969 C 453.882812 445.167969 450.113281 448.9375 450.113281 453.589844 L 450.113281 547.394531 C 380.675781 551.753906 325.511719 609.621094 325.511719 680.140625 C 325.511719 750.660156 380.675781 808.53125 450.113281 812.890625 L 450.113281 906.976562 C 450.113281 911.628906 453.886719 915.398438 458.535156 915.398438 L 673.121094 915.398438 L 673.121094 932.089844 C 673.121094 941.820312 681.035156 949.738281 690.765625 949.738281 L 846.777344 949.738281 C 856.507812 949.738281 864.421875 941.820312 864.421875 932.089844 L 864.421875 881.863281 C 864.421875 872.132812 856.507812 864.214844 846.777344 864.214844 L 690.765625 864.214844 C 681.035156 864.214844 673.121094 872.132812 673.121094 881.863281 L 673.121094 898.554688 L 466.957031 898.554688 L 466.957031 812.890625 C 495.75 811.082031 522.09375 800.078125 543.066406 782.777344 L 559.871094 799.582031 C 561.449219 801.164062 563.589844 802.050781 565.824219 802.050781 L 673.121094 802.050781 L 673.121094 818.742188 C 673.121094 828.472656 681.035156 836.390625 690.765625 836.390625 L 846.777344 836.390625 C 856.507812 836.390625 864.421875 828.472656 864.421875 818.742188 L 864.421875 768.515625 C 864.421875 758.785156 856.507812 750.871094 846.777344 750.871094 L 690.765625 750.871094 C 681.035156 750.871094 673.121094 758.785156 673.121094 768.515625 L 673.121094 785.207031 L 569.3125 785.207031 L 555.359375 771.253906 C 575.957031 749.375 589.242188 720.546875 591.277344 688.699219 L 673.121094 688.699219 L 673.121094 705.394531 C 673.121094 715.125 681.035156 723.039062 690.765625 723.039062 L 846.777344 723.039062 C 856.507812 723.039062 864.421875 715.125 864.421875 705.394531 L 864.421875 655.167969 C 864.421875 645.4375 856.507812 637.519531 846.777344 637.519531 L 690.765625 637.519531 C 681.035156 637.519531 673.121094 645.4375 673.121094 655.167969 L 673.121094 671.863281 L 591.296875 671.863281 C 590.171875 653.875 585.398438 636.273438 577.308594 620.238281 L 619.382812 578.164062 C 621.5625 575.984375 622.375 572.789062 621.503906 569.832031 C 620.632812 566.871094 618.214844 564.628906 615.203125 563.980469 L 591.910156 558.960938 L 593.773438 557.097656 C 597.0625 553.808594 597.0625 548.476562 593.773438 545.191406 C 590.484375 541.902344 585.152344 541.902344 581.863281 545.191406 L 580.003906 547.050781 L 574.980469 523.757812 C 574.332031 520.746094 572.085938 518.328125 569.128906 517.457031 C 566.175781 516.585938 562.976562 517.398438 560.796875 519.578125 L 518.816406 561.558594 C 502.722656 553.371094 485.042969 548.535156 466.957031 547.390625 L 466.957031 462.007812 L 673.121094 462.007812 L 673.121094 478.703125 C 673.121094 488.433594 681.035156 496.347656 690.765625 496.347656 L 846.777344 496.347656 C 856.507812 496.347656 864.421875 488.433594 864.421875 478.703125 L 864.421875 428.476562 C 864.421875 418.746094 856.503906 410.828125 846.777344 410.828125 Z M 689.960938 881.867188 C 689.960938 881.445312 690.34375 881.058594 690.765625 881.058594 L 846.777344 881.058594 C 847.199219 881.058594 847.582031 881.445312 847.582031 881.867188 L 847.582031 932.09375 C 847.582031 932.515625 847.199219 932.898438 846.777344 932.898438 L 690.765625 932.898438 C 690.34375 932.898438 689.960938 932.515625 689.960938 932.09375 Z M 689.960938 768.519531 C 689.960938 768.097656 690.34375 767.710938 690.765625 767.710938 L 846.777344 767.710938 C 847.199219 767.710938 847.582031 768.09375 847.582031 768.519531 L 847.582031 818.746094 C 847.582031 819.167969 847.199219 819.550781 846.777344 819.550781 L 690.765625 819.550781 C 690.34375 819.550781 689.960938 819.167969 689.960938 818.746094 Z M 689.960938 655.171875 C 689.960938 654.75 690.34375 654.367188 690.765625 654.367188 L 846.777344 654.367188 C 847.199219 654.367188 847.582031 654.75 847.582031 655.171875 L 847.582031 705.398438 C 847.582031 705.820312 847.199219 706.203125 846.777344 706.203125 L 690.765625 706.203125 C 690.34375 706.203125 689.960938 705.820312 689.960938 705.398438 Z M 342.351562 680.140625 C 342.351562 616.078125 394.472656 563.960938 458.535156 563.960938 C 475.988281 563.960938 493.199219 567.894531 508.800781 575.382812 C 508.820312 575.875 508.867188 576.367188 508.972656 576.855469 L 516.28125 610.773438 L 514.992188 612.058594 C 499.660156 599.320312 479.976562 591.652344 458.535156 591.652344 C 409.742188 591.652344 370.042969 631.347656 370.042969 680.140625 C 370.042969 728.933594 409.742188 768.632812 458.535156 768.632812 C 507.328125 768.632812 547.023438 728.933594 547.023438 680.140625 C 547.023438 658.84375 539.460938 639.277344 526.875 623.992188 L 528.1875 622.679688 L 562.101562 629.988281 C 562.542969 630.085938 562.984375 630.128906 563.421875 630.15625 C 570.824219 645.6875 574.714844 662.804688 574.714844 680.140625 C 574.714844 680.1875 574.714844 680.230469 574.714844 680.277344 C 574.714844 680.277344 574.714844 680.28125 574.714844 680.28125 C 574.714844 680.285156 574.714844 680.285156 574.714844 680.285156 C 574.636719 744.285156 522.546875 796.324219 458.535156 796.324219 C 394.472656 796.324219 342.351562 744.203125 342.351562 680.140625 Z M 485.652344 680.140625 C 485.652344 695.09375 473.488281 707.257812 458.535156 707.257812 C 443.582031 707.257812 431.417969 695.09375 431.417969 680.140625 C 431.417969 665.1875 443.582031 653.023438 458.535156 653.023438 C 463.023438 653.023438 467.253906 654.125 470.988281 656.0625 L 452.722656 674.328125 C 449.433594 677.617188 449.433594 682.949219 452.722656 686.238281 C 454.367188 687.882812 456.523438 688.703125 458.675781 688.703125 C 460.832031 688.703125 462.988281 687.882812 464.628906 686.238281 L 482.804688 668.0625 C 484.625 671.703125 485.652344 675.804688 485.652344 680.140625 Z M 483.246094 643.808594 C 476.199219 639 467.691406 636.183594 458.535156 636.183594 C 434.296875 636.183594 414.574219 655.902344 414.574219 680.144531 C 414.574219 704.382812 434.296875 724.101562 458.535156 724.101562 C 482.773438 724.101562 502.496094 704.382812 502.496094 680.144531 C 502.496094 671.132812 499.765625 662.753906 495.097656 655.773438 L 514.894531 635.976562 C 524.460938 648.160156 530.1875 663.488281 530.1875 680.144531 C 530.1875 719.652344 498.042969 751.792969 458.535156 751.792969 C 419.027344 751.792969 386.886719 719.648438 386.886719 680.140625 C 386.886719 640.632812 419.027344 608.492188 458.535156 608.492188 C 475.332031 608.492188 490.789062 614.316406 503.019531 624.035156 Z M 596.542969 577.183594 L 561.167969 612.5625 L 542.363281 608.507812 L 577.738281 573.132812 Z M 561.777344 542.417969 L 565.828125 561.222656 L 530.453125 596.601562 L 526.398438 577.792969 Z M 847.582031 478.703125 C 847.582031 479.125 847.199219 479.507812 846.777344 479.507812 L 690.765625 479.507812 C 690.34375 479.507812 689.960938 479.125 689.960938 478.703125 L 689.960938 428.476562 C 689.960938 428.054688 690.34375 427.667969 690.765625 427.667969 L 846.777344 427.667969 C 847.195312 427.667969 847.582031 428.054688 847.582031 428.476562 Z M 846.777344 524.175781 L 690.765625 524.175781 C 681.035156 524.175781 673.121094 532.09375 673.121094 541.824219 L 673.121094 558.515625 L 647.59375 558.515625 C 642.945312 558.515625 639.175781 562.285156 639.175781 566.9375 C 639.175781 571.585938 642.945312 575.355469 647.59375 575.355469 L 673.121094 575.355469 L 673.121094 592.050781 C 673.121094 601.78125 681.035156 609.695312 690.765625 609.695312 L 846.777344 609.695312 C 856.503906 609.695312 864.421875 601.78125 864.421875 592.050781 L 864.421875 541.824219 C 864.421875 532.09375 856.503906 524.175781 846.777344 524.175781 Z M 847.582031 592.050781 C 847.582031 592.472656 847.199219 592.855469 846.777344 592.855469 L 690.765625 592.855469 C 690.34375 592.855469 689.960938 592.472656 689.960938 592.050781 L 689.960938 541.824219 C 689.960938 541.402344 690.34375 541.015625 690.765625 541.015625 L 846.777344 541.015625 C 847.195312 541.015625 847.582031 541.402344 847.582031 541.824219 Z M 822.1875 453.589844 C 822.1875 458.238281 818.417969 462.007812 813.769531 462.007812 L 723.773438 462.007812 C 719.125 462.007812 715.351562 458.238281 715.351562 453.589844 C 715.351562 448.9375 719.125 445.167969 723.773438 445.167969 L 813.769531 445.167969 C 818.417969 445.167969 822.1875 448.9375 822.1875 453.589844 Z M 822.1875 566.9375 C 822.1875 571.585938 818.417969 575.355469 813.769531 575.355469 L 723.773438 575.355469 C 719.125 575.355469 715.351562 571.585938 715.351562 566.9375 C 715.351562 562.285156 719.125 558.515625 723.773438 558.515625 L 813.769531 558.515625 C 818.417969 558.515625 822.1875 562.285156 822.1875 566.9375 Z M 715.351562 680.285156 C 715.351562 675.632812 719.125 671.863281 723.773438 671.863281 L 813.769531 671.863281 C 818.417969 671.863281 822.1875 675.632812 822.1875 680.285156 C 822.1875 684.933594 818.417969 688.703125 813.769531 688.703125 L 723.773438 688.703125 C 719.125 688.703125 715.351562 684.933594 715.351562 680.285156 Z M 715.351562 793.632812 C 715.351562 788.980469 719.125 785.210938 723.773438 785.210938 L 813.769531 785.210938 C 818.417969 785.210938 822.1875 788.980469 822.1875 793.632812 C 822.1875 798.28125 818.417969 802.050781 813.769531 802.050781 L 723.773438 802.050781 C 719.125 802.050781 715.351562 798.28125 715.351562 793.632812 Z M 715.351562 906.980469 C 715.351562 902.328125 719.125 898.558594 723.773438 898.558594 L 813.769531 898.558594 C 818.417969 898.558594 822.1875 902.328125 822.1875 906.980469 C 822.1875 911.628906 818.417969 915.398438 813.769531 915.398438 L 723.773438 915.398438 C 719.125 915.398438 715.351562 911.628906 715.351562 906.980469 Z M 715.351562 906.980469 " fill-opacity="1" fill-rule="nonzero"/></g></svg>