<svg xmlns="http://www.w3.org/2000/svg" xmlns:xlink="http://www.w3.org/1999/xlink" width="1587" zoomAndPan="magnify" viewBox="0 0 1190.25 1683.749949" height="2245" preserveAspectRatio="xMidYMid meet" version="1.0"><defs><clipPath id="3e6ebd97c3"><path d="M 0 0.40625 L 1189.5 0.40625 L 1189.5 1683.09375 L 0 1683.09375 Z M 0 0.40625 " clip-rule="nonzero"/></clipPath><clipPath id="0f12581f56"><path d="M 252.34375 365.84375 L 901.433594 365.84375 L 901.433594 1014.933594 L 252.34375 1014.933594 Z M 252.34375 365.84375 " clip-rule="nonzero"/></clipPath></defs><g clip-path="url(#3e6ebd97c3)"><path fill="#ffffff" d="M 0 0.40625 L 1189.5 0.40625 L 1189.5 1683.09375 L 0 1683.09375 Z M 0 0.40625 " fill-opacity="1" fill-rule="nonzero"/><path fill="#ffffff" d="M 0 0.40625 L 1189.5 0.40625 L 1189.5 1683.09375 L 0 1683.09375 Z M 0 0.40625 " fill-opacity="1" fill-rule="nonzero"/></g><g clip-path="url(#0f12581f56)"><path fill="#8f0e1f" d="M 317.253906 771.527344 C 317.253906 726.714844 353.578125 690.390625 398.390625 690.390625 C 443.199219 690.390625 479.527344 726.714844 479.527344 771.527344 C 479.527344 816.335938 443.199219 852.664062 398.390625 852.664062 C 353.578125 852.664062 317.253906 816.335938 317.253906 771.527344 Z M 479.527344 917.570312 L 317.253906 917.570312 C 281.402344 917.570312 252.34375 946.632812 252.34375 982.480469 L 252.34375 1014.933594 L 544.433594 1014.933594 L 544.433594 982.480469 C 544.433594 946.632812 515.375 917.570312 479.527344 917.570312 Z M 901.433594 555.003906 L 901.433594 950.027344 C 901.433594 985.875 872.375 1014.933594 836.527344 1014.933594 L 576.890625 1014.933594 L 576.890625 982.480469 C 576.890625 974.0625 575.703125 965.933594 573.6875 958.140625 L 804.070312 958.140625 C 808.558594 958.140625 812.183594 954.511719 812.183594 950.027344 C 812.183594 945.542969 808.558594 941.914062 804.070312 941.914062 L 567.921875 941.914062 C 557.925781 920.222656 540.246094 902.796875 518.324219 893.230469 L 804.070312 893.230469 C 808.554688 893.230469 812.183594 889.601562 812.183594 885.117188 C 812.183594 880.632812 808.554688 877.003906 804.070312 877.003906 L 479.527344 877.003906 C 475.039062 877.003906 471.414062 880.632812 471.414062 885.117188 L 398.390625 885.117188 C 440.324219 885.117188 476.933594 862.214844 496.613281 828.320312 L 804.070312 828.320312 C 808.558594 828.320312 812.183594 824.695312 812.183594 820.207031 C 812.183594 815.722656 808.558594 812.09375 804.070312 812.09375 L 504.363281 812.09375 C 509.210938 799.472656 511.980469 785.832031 511.980469 771.527344 C 511.980469 768.789062 511.761719 766.101562 511.570312 763.414062 L 804.070312 763.414062 C 808.558594 763.414062 812.183594 759.785156 812.183594 755.300781 C 812.183594 750.8125 808.558594 747.183594 804.070312 747.183594 L 509.289062 747.183594 C 505.285156 728.9375 496.90625 712.324219 485.273438 698.503906 L 804.070312 698.503906 C 808.558594 698.503906 812.183594 694.875 812.183594 690.390625 C 812.183594 685.90625 808.558594 682.277344 804.070312 682.277344 L 479.527344 682.277344 C 476.703125 682.277344 474.339844 683.800781 472.890625 685.984375 C 452.921875 668.570312 426.902344 657.933594 398.390625 657.933594 C 392.867188 657.933594 387.476562 658.464844 382.164062 659.230469 L 382.164062 430.753906 C 382.164062 394.902344 411.222656 365.84375 447.070312 365.84375 L 712.277344 365.84375 C 729.492188 365.84375 746 372.683594 758.171875 384.855469 L 882.421875 509.105469 C 894.59375 521.277344 901.433594 537.789062 901.433594 555.003906 Z M 471.414062 495.664062 C 471.414062 500.148438 475.039062 503.777344 479.527344 503.777344 L 641.800781 503.777344 C 646.285156 503.777344 649.914062 500.148438 649.914062 495.664062 C 649.914062 491.175781 646.285156 487.550781 641.800781 487.550781 L 479.527344 487.550781 C 475.039062 487.550781 471.414062 491.175781 471.414062 495.664062 Z M 471.414062 560.570312 C 471.414062 565.058594 475.039062 568.683594 479.527344 568.683594 L 658.027344 568.683594 C 662.511719 568.683594 666.140625 565.058594 666.140625 560.570312 C 666.140625 556.085938 662.511719 552.457031 658.027344 552.457031 L 479.527344 552.457031 C 475.039062 552.457031 471.414062 556.085938 471.414062 560.570312 Z M 812.183594 625.480469 C 812.183594 620.996094 808.558594 617.367188 804.070312 617.367188 L 479.527344 617.367188 C 475.039062 617.367188 471.414062 620.996094 471.414062 625.480469 C 471.414062 629.964844 475.039062 633.59375 479.527344 633.59375 L 804.070312 633.59375 C 808.558594 633.59375 812.183594 629.964844 812.183594 625.480469 Z M 868.980469 555 C 868.980469 546.46875 865.507812 538.101562 859.472656 532.054688 L 735.234375 407.796875 C 729.101562 401.675781 720.957031 398.300781 712.273438 398.300781 L 706.710938 398.300781 L 706.710938 495.664062 C 706.710938 531.511719 735.769531 560.570312 771.617188 560.570312 L 868.980469 560.570312 Z M 868.980469 555 " fill-opacity="1" fill-rule="nonzero"/></g></svg>