<svg xmlns="http://www.w3.org/2000/svg" xmlns:xlink="http://www.w3.org/1999/xlink" width="1587" zoomAndPan="magnify" viewBox="0 0 1190.25 1683.749949" height="2245" preserveAspectRatio="xMidYMid meet" version="1.0"><defs><clipPath id="0b1451755d"><path d="M 0 0.40625 L 1189.5 0.40625 L 1189.5 1683.09375 L 0 1683.09375 Z M 0 0.40625 " clip-rule="nonzero"/></clipPath><clipPath id="4c86bf1eff"><path d="M 262.15625 385.054688 L 927 385.054688 L 927 1050.632812 L 262.15625 1050.632812 Z M 262.15625 385.054688 " clip-rule="nonzero"/></clipPath></defs><g clip-path="url(#0b1451755d)"><path fill="#ffffff" d="M 0 0.40625 L 1189.5 0.40625 L 1189.5 1683.09375 L 0 1683.09375 Z M 0 0.40625 " fill-opacity="1" fill-rule="nonzero"/><path fill="#ffffff" d="M 0 0.40625 L 1189.5 0.40625 L 1189.5 1683.09375 L 0 1683.09375 Z M 0 0.40625 " fill-opacity="1" fill-rule="nonzero"/></g><g clip-path="url(#4c86bf1eff)"><path fill="#8f0e1f" d="M 919.050781 456.761719 L 870.640625 456.761719 C 870.621094 452.84375 869.125 448.929688 866.132812 445.941406 C 863.242188 443.050781 859.484375 441.585938 855.695312 441.476562 L 855.695312 393.417969 C 855.695312 390.3125 853.832031 387.503906 850.960938 386.3125 C 848.117188 385.121094 844.789062 385.753906 842.585938 387.941406 L 790.347656 439.640625 C 788.878906 441.09375 788.054688 443.070312 788.0625 445.132812 L 788.1875 502.125 L 764.339844 525.976562 C 711.035156 478.082031 640.609375 448.878906 563.476562 448.878906 C 397.574219 448.878906 262.597656 583.851562 262.597656 749.757812 C 262.597656 915.664062 397.574219 1050.632812 563.476562 1050.632812 C 729.375 1050.632812 864.351562 915.664062 864.351562 749.757812 C 864.351562 672.042969 834.734375 601.121094 786.195312 547.675781 L 810.03125 523.835938 L 866.976562 523.714844 C 869 523.710938 870.9375 522.910156 872.375 521.488281 L 924.460938 469.9375 C 926.679688 467.742188 927.355469 464.421875 926.167969 461.535156 C 924.984375 458.644531 922.171875 456.761719 919.050781 456.761719 Z M 810.453125 749.757812 C 810.453125 885.945312 699.660156 996.738281 563.476562 996.738281 C 427.289062 996.738281 316.5 885.941406 316.5 749.757812 C 316.5 613.574219 427.292969 502.78125 563.476562 502.78125 C 625.75 502.78125 682.671875 525.996094 726.164062 564.164062 L 679.800781 610.535156 C 648.277344 584.148438 607.707031 568.226562 563.476562 568.226562 C 463.382812 568.226562 381.945312 649.660156 381.945312 749.753906 C 381.945312 849.847656 463.382812 931.28125 563.476562 931.28125 C 663.566406 931.28125 745.003906 849.847656 745.003906 749.753906 C 745.003906 704.957031 728.65625 663.925781 701.660156 632.230469 L 748.019531 585.859375 C 786.820312 629.5 810.453125 686.90625 810.453125 749.757812 Z M 563.476562 819.632812 C 602.003906 819.632812 633.351562 788.289062 633.351562 749.757812 C 633.351562 735.773438 629.183594 722.765625 622.078125 711.828125 L 668.851562 665.046875 C 687.546875 688.261719 698.804688 717.703125 698.804688 749.757812 C 698.804688 824.378906 638.097656 885.082031 563.476562 885.082031 C 488.851562 885.082031 428.148438 824.378906 428.148438 749.757812 C 428.148438 675.140625 488.851562 614.429688 563.476562 614.429688 C 594.960938 614.429688 623.898438 625.328125 646.914062 643.429688 L 600.035156 690.320312 C 589.386719 683.746094 576.890625 679.878906 563.476562 679.878906 C 524.949219 679.878906 493.597656 711.226562 493.597656 749.757812 C 493.597656 788.289062 524.945312 819.632812 563.476562 819.632812 Z M 563.476562 819.632812 " fill-opacity="1" fill-rule="nonzero"/></g></svg>