<svg xmlns="http://www.w3.org/2000/svg" xmlns:xlink="http://www.w3.org/1999/xlink" width="1587" zoomAndPan="magnify" viewBox="0 0 1190.25 1683.749949" height="2245" preserveAspectRatio="xMidYMid meet" version="1.0"><defs><clipPath id="389bc8b8f0"><path d="M 0 0.40625 L 1189.5 0.40625 L 1189.5 1683.09375 L 0 1683.09375 Z M 0 0.40625 " clip-rule="nonzero"/></clipPath><clipPath id="42cbc921a5"><path d="M 541 750 L 923.878906 750 L 923.878906 1017 L 541 1017 Z M 541 750 " clip-rule="nonzero"/></clipPath><clipPath id="994c020bd5"><path d="M 610 599.589844 L 802 599.589844 L 802 790 L 610 790 Z M 610 599.589844 " clip-rule="nonzero"/></clipPath><clipPath id="06fa194ad3"><path d="M 265.796875 787 L 322 787 L 322 850 L 265.796875 850 Z M 265.796875 787 " clip-rule="nonzero"/></clipPath><clipPath id="5a7f173201"><path d="M 511 801 L 802 801 L 802 1083.785156 L 511 1083.785156 Z M 511 801 " clip-rule="nonzero"/></clipPath></defs><g clip-path="url(#389bc8b8f0)"><path fill="#ffffff" d="M 0 0.40625 L 1190.25 0.40625 L 1190.25 8446.832031 L 0 8446.832031 Z M 0 0.40625 " fill-opacity="1" fill-rule="nonzero"/><path fill="#ffffff" d="M 0 0.40625 L 1189.5 0.40625 L 1189.5 1683.09375 L 0 1683.09375 Z M 0 0.40625 " fill-opacity="1" fill-rule="nonzero"/><path fill="#ffffff" d="M 0 0.40625 L 1189.5 0.40625 L 1189.5 1683.09375 L 0 1683.09375 Z M 0 0.40625 " fill-opacity="1" fill-rule="nonzero"/></g><g clip-path="url(#42cbc921a5)"><path fill="#8f0e1f" d="M 763.953125 750.941406 L 766.746094 764.96875 L 909.667969 764.96875 L 909.667969 1002.144531 L 555.613281 1002.144531 L 555.613281 764.96875 L 746.472656 764.96875 L 734.855469 750.941406 L 541.421875 750.941406 L 541.421875 1016.183594 L 923.863281 1016.183594 L 923.863281 750.941406 L 763.953125 750.941406 " fill-opacity="1" fill-rule="nonzero"/></g><g clip-path="url(#994c020bd5)"><path fill="#8f0e1f" d="M 713.304688 718.164062 L 656.820312 718.164062 C 634.113281 718.164062 615.667969 699.9375 615.667969 677.515625 L 615.667969 645.585938 C 615.667969 623.171875 634.113281 604.933594 656.820312 604.933594 L 755.242188 604.933594 C 777.902344 604.933594 796.289062 623.171875 796.289062 645.585938 L 796.289062 677.515625 C 796.289062 699.9375 777.902344 718.164062 755.242188 718.164062 C 754.507812 718.164062 753.738281 718.515625 753.238281 719.125 C 752.683594 719.726562 752.53125 720.535156 752.644531 721.296875 L 763.832031 777.585938 L 715.320312 719.125 C 714.816406 718.519531 714.046875 718.164062 713.304688 718.164062 Z M 746.46875 764.96875 L 766.402344 789.007812 C 766.917969 789.632812 767.6875 789.980469 768.488281 789.980469 C 768.847656 789.980469 769.253906 789.886719 769.589844 789.707031 C 770.683594 789.199219 771.277344 788.019531 771.097656 786.816406 L 766.746094 764.96875 L 763.953125 750.945312 L 758.453125 723.3125 C 782.5625 721.679688 801.621094 701.75 801.621094 677.515625 L 801.621094 645.585938 C 801.621094 620.277344 780.867188 599.664062 755.242188 599.664062 L 656.820312 599.664062 C 631.132812 599.664062 610.320312 620.277344 610.320312 645.585938 L 610.320312 677.515625 C 610.320312 702.832031 631.132812 723.4375 656.820312 723.4375 L 712.054688 723.4375 L 734.851562 750.945312 L 746.46875 764.96875 " fill-opacity="1" fill-rule="nonzero"/></g><path fill="#8f0e1f" d="M 760.355469 630.121094 L 654.28125 630.121094 L 654.28125 637.128906 L 760.355469 637.128906 L 760.355469 630.121094 " fill-opacity="1" fill-rule="nonzero"/><path fill="#8f0e1f" d="M 760.355469 655.402344 L 654.28125 655.402344 L 654.28125 662.425781 L 760.355469 662.425781 L 760.355469 655.402344 " fill-opacity="1" fill-rule="nonzero"/><path fill="#8f0e1f" d="M 760.355469 680.675781 L 654.28125 680.675781 L 654.28125 687.683594 L 760.355469 687.683594 L 760.355469 680.675781 " fill-opacity="1" fill-rule="nonzero"/><path fill="#8f0e1f" d="M 810.09375 1005.277344 L 810.09375 1036.027344 L 843.898438 1036.027344 L 843.898438 1057.078125 L 691.277344 1057.078125 L 691.277344 1005.277344 L 810.09375 1005.277344 " fill-opacity="1" fill-rule="nonzero"/><path fill="#8f0e1f" d="M 836.753906 852.992188 C 836.625 852.992188 836.402344 852.953125 836.308594 852.882812 L 835.882812 852.683594 L 835.820312 852.996094 C 833.570312 864.875 825.042969 872.921875 814.949219 872.921875 C 804.945312 872.921875 796.351562 864.875 794.0625 852.996094 L 793.988281 852.683594 L 793.671875 852.882812 C 793.464844 852.953125 793.378906 852.992188 793.140625 852.992188 C 791.503906 852.992188 788.246094 848.113281 787.945312 842.789062 C 787.519531 836.796875 787.59375 833.554688 788.230469 832.886719 C 788.269531 832.839844 788.324219 832.839844 788.46875 832.839844 C 788.941406 832.839844 789.867188 833.542969 790.714844 834.761719 L 791.804688 836.109375 L 791.261719 834.378906 C 790.695312 832.457031 790.457031 830.769531 790.457031 829.296875 C 790.457031 814.292969 801.433594 802.164062 814.949219 802.164062 C 828.441406 802.164062 839.421875 814.292969 839.421875 829.296875 C 839.421875 830.769531 839.179688 832.457031 838.597656 834.378906 L 838.152344 836.109375 L 839.148438 834.761719 C 840.011719 833.542969 840.925781 832.839844 841.535156 832.839844 C 841.570312 832.839844 841.589844 832.839844 841.636719 832.886719 C 842.273438 833.554688 842.46875 836.796875 841.929688 842.789062 C 841.621094 848.113281 838.496094 852.992188 836.753906 852.992188 " fill-opacity="1" fill-rule="nonzero"/><path fill="#8f0e1f" d="M 751.957031 944.304688 L 760.191406 890.050781 L 792.273438 876.28125 L 792.511719 876.527344 L 793.089844 876.410156 L 809.328125 900.988281 L 811.410156 885.496094 L 807.785156 875.59375 L 807.378906 874.480469 C 809.796875 875.347656 812.34375 875.921875 814.945312 875.921875 C 817.535156 875.921875 820.164062 875.347656 822.605469 874.480469 L 822.085938 875.59375 L 818.453125 885.496094 L 820.515625 900.890625 L 820.609375 901.695312 L 837.601562 876.28125 L 838.570312 876.527344 L 838.792969 876.28125 L 870.867188 890.050781 L 879.117188 944.304688 L 751.957031 944.304688 " fill-opacity="1" fill-rule="nonzero"/><path fill="#8f0e1f" d="M 396.863281 760.824219 L 411.226562 755.078125 L 414.585938 750.875 C 413.265625 749.246094 412.074219 747.300781 411.699219 744.894531 L 411.550781 744.554688 L 411.433594 744.847656 C 411.390625 744.882812 411.355469 744.890625 411.253906 744.890625 C 410.542969 744.890625 409.085938 742.664062 408.964844 740.3125 C 408.777344 737.785156 408.777344 736.398438 409.085938 736.015625 C 409.101562 736.003906 409.109375 736.003906 409.128906 736.003906 C 409.410156 736.003906 409.890625 736.398438 410.199219 736.75 L 410.644531 737.355469 L 410.480469 736.695312 C 410.191406 735.917969 410.0625 735.222656 410.0625 734.574219 C 410.0625 728.015625 414.851562 722.652344 420.714844 722.652344 C 426.683594 722.652344 431.355469 728.015625 431.355469 734.574219 C 431.355469 735.222656 431.277344 735.917969 431.039062 736.695312 L 430.890625 737.355469 L 431.261719 736.75 C 431.648438 736.398438 432.101562 736.003906 432.289062 736.003906 C 432.304688 736.003906 432.433594 736.003906 432.453125 736.015625 C 432.710938 736.398438 432.734375 737.785156 432.546875 740.3125 C 432.453125 742.664062 430.996094 744.890625 430.300781 744.890625 C 430.105469 744.890625 430.058594 744.882812 430.035156 744.847656 L 429.855469 744.554688 L 429.835938 744.894531 C 429.410156 746.984375 428.46875 749.113281 427.0625 750.484375 L 430.730469 755.078125 L 445.046875 760.808594 L 445.210938 760.824219 L 448.664062 784.632812 L 393.292969 784.632812 L 396.863281 760.824219 " fill-opacity="1" fill-rule="nonzero"/><path fill="#8f0e1f" d="M 311.8125 760.824219 L 326.179688 755.078125 L 329.71875 750.875 C 328.238281 749.246094 327.105469 747.300781 326.660156 744.894531 L 326.636719 744.554688 L 326.464844 744.847656 C 326.421875 744.882812 326.378906 744.890625 326.230469 744.890625 C 325.503906 744.890625 324.046875 742.664062 323.945312 740.3125 C 323.765625 737.785156 323.789062 736.398438 324.046875 736.015625 C 324.0625 736.003906 324.074219 736.003906 324.210938 736.003906 C 324.398438 736.003906 324.84375 736.398438 325.230469 736.75 L 325.605469 737.355469 L 325.445312 736.695312 C 325.230469 735.917969 325.023438 735.222656 325.023438 734.574219 C 325.023438 728.015625 329.804688 722.652344 335.785156 722.652344 C 341.648438 722.652344 346.445312 728.015625 346.445312 734.574219 C 346.445312 735.222656 346.300781 735.917969 346 736.695312 L 345.855469 737.355469 L 346.285156 736.75 C 346.609375 736.398438 347.082031 736.003906 347.371094 736.003906 C 347.382812 736.003906 347.398438 736.003906 347.414062 736.015625 C 347.714844 736.398438 347.714844 737.785156 347.535156 740.3125 C 347.414062 742.664062 345.957031 744.890625 345.246094 744.890625 C 345.136719 744.890625 345.09375 744.882812 345.066406 744.847656 L 344.828125 744.554688 L 344.800781 744.894531 C 344.441406 746.984375 343.429688 749.113281 342.023438 750.484375 L 345.761719 755.078125 L 360.011719 760.808594 L 360.175781 760.824219 L 363.695312 784.632812 L 308.253906 784.632812 L 311.8125 760.824219 " fill-opacity="1" fill-rule="nonzero"/><path fill="#8f0e1f" d="M 439.441406 819.757812 L 453.761719 813.800781 L 457.164062 809.613281 C 455.679688 808.207031 454.652344 806.03125 454.15625 803.605469 L 454.140625 803.476562 L 453.890625 803.539062 C 453.863281 803.570312 453.8125 803.59375 453.769531 803.59375 C 453 803.59375 451.664062 801.597656 451.425781 799.253906 C 451.304688 796.726562 451.355469 795.136719 451.664062 794.921875 C 451.6875 794.898438 451.6875 794.898438 451.707031 794.898438 C 451.945312 794.898438 452.339844 795.125 452.675781 795.683594 L 453.144531 796.285156 L 452.949219 795.605469 C 452.65625 794.84375 452.570312 793.929688 452.570312 793.265625 C 452.570312 786.726562 457.429688 781.585938 463.28125 781.585938 C 469.144531 781.585938 473.933594 786.726562 473.933594 793.265625 C 473.933594 793.929688 473.847656 794.84375 473.632812 795.605469 L 473.367188 796.285156 L 473.726562 795.683594 C 474.234375 795.125 474.542969 794.898438 474.867188 794.898438 C 474.867188 794.898438 474.886719 794.898438 474.902344 794.921875 C 475.160156 795.136719 475.203125 796.726562 475.0625 799.253906 C 474.902344 801.597656 473.574219 803.59375 472.757812 803.59375 C 472.699219 803.59375 472.65625 803.570312 472.492188 803.539062 L 472.390625 803.476562 L 472.390625 803.605469 C 471.867188 805.910156 470.925781 807.804688 469.648438 809.398438 L 473.308594 813.800781 L 487.632812 819.742188 L 491.25 843.363281 L 435.792969 843.363281 L 439.441406 819.757812 " fill-opacity="1" fill-rule="nonzero"/><path fill="#8f0e1f" d="M 390.453125 867.25 L 404.816406 861.285156 L 408.183594 857.09375 C 406.839844 855.679688 405.691406 853.515625 405.304688 851.085938 L 405.144531 850.980469 L 405.039062 851.058594 C 405.007812 851.070312 404.960938 851.082031 404.859375 851.082031 C 404.148438 851.082031 402.691406 849.074219 402.570312 846.734375 C 402.347656 844.003906 402.367188 842.609375 402.691406 842.40625 C 402.699219 842.191406 402.71875 842.191406 402.734375 842.191406 C 402.984375 842.191406 403.488281 842.609375 403.804688 843.164062 L 404.234375 843.769531 L 404.085938 843.074219 C 403.804688 842.089844 403.636719 841.433594 403.636719 840.785156 C 403.636719 834.203125 408.441406 828.855469 414.3125 828.855469 C 420.277344 828.855469 424.945312 834.203125 424.945312 840.785156 C 424.945312 841.433594 424.867188 842.089844 424.644531 843.074219 L 424.5 843.769531 L 424.859375 843.164062 C 425.253906 842.609375 425.691406 842.191406 425.886719 842.191406 C 425.886719 842.191406 426.015625 842.191406 426.050781 842.40625 C 426.300781 842.609375 426.332031 844.003906 426.121094 846.734375 C 426.035156 849.074219 424.601562 851.082031 423.890625 851.082031 C 423.710938 851.082031 423.667969 851.070312 423.636719 851.058594 L 423.472656 850.980469 L 423.429688 851.085938 C 423 853.382812 422.074219 855.28125 420.660156 856.867188 L 424.335938 861.285156 L 438.65625 867.214844 L 438.820312 867.25 L 442.261719 890.855469 L 386.875 890.855469 L 390.453125 867.25 " fill-opacity="1" fill-rule="nonzero"/><path fill="#8f0e1f" d="M 318.230469 867.25 L 332.582031 861.285156 L 336.148438 857.09375 C 334.628906 855.679688 333.515625 853.515625 333.050781 851.085938 L 333.027344 850.980469 L 332.855469 851.058594 C 332.832031 851.070312 332.789062 851.082031 332.609375 851.082031 C 331.898438 851.082031 330.441406 849.074219 330.371094 846.734375 C 330.15625 844.003906 330.183594 842.609375 330.441406 842.40625 C 330.457031 842.191406 330.472656 842.191406 330.601562 842.191406 C 330.78125 842.191406 331.246094 842.609375 331.640625 843.164062 L 331.980469 843.769531 L 331.851562 843.074219 C 331.628906 842.089844 331.535156 841.433594 331.535156 840.785156 C 331.535156 834.203125 336.207031 828.855469 342.1875 828.855469 C 348.042969 828.855469 352.855469 834.203125 352.855469 840.785156 C 352.855469 841.433594 352.710938 842.089844 352.402344 843.074219 L 352.246094 843.769531 L 352.691406 843.164062 C 353.019531 842.609375 353.507812 842.191406 353.765625 842.191406 C 353.78125 842.191406 353.789062 842.191406 353.808594 842.40625 C 354.132812 842.609375 354.140625 844.003906 353.925781 846.734375 C 353.808594 849.074219 352.351562 851.082031 351.640625 851.082031 C 351.535156 851.082031 351.503906 851.070312 351.460938 851.058594 L 351.339844 850.980469 L 351.191406 851.085938 C 350.832031 853.382812 349.832031 855.28125 348.433594 856.867188 L 352.152344 861.285156 L 366.429688 867.214844 L 366.574219 867.25 L 370.085938 890.855469 L 314.648438 890.855469 L 318.230469 867.25 " fill-opacity="1" fill-rule="nonzero"/><g clip-path="url(#06fa194ad3)"><path fill="#8f0e1f" d="M 269.363281 825.878906 L 283.714844 820.144531 L 287.160156 815.941406 C 285.640625 814.320312 284.648438 812.363281 284.101562 809.949219 L 284.101562 809.613281 L 283.996094 809.910156 C 283.84375 809.941406 283.800781 809.949219 283.757812 809.949219 C 282.910156 809.949219 281.570312 807.695312 281.425781 805.382812 C 281.308594 802.855469 281.324219 801.460938 281.570312 801.046875 C 281.605469 801.03125 281.625 801.03125 281.632812 801.03125 C 281.933594 801.03125 282.257812 801.457031 282.660156 801.808594 L 283.132812 802.417969 L 282.867188 801.742188 C 282.640625 800.949219 282.566406 800.289062 282.566406 799.402344 C 282.566406 793.050781 287.355469 787.710938 293.21875 787.710938 C 299.070312 787.710938 303.910156 793.050781 303.910156 799.402344 C 303.910156 800.289062 303.839844 800.949219 303.542969 801.742188 L 303.34375 802.417969 L 303.824219 801.808594 C 304.160156 801.457031 304.554688 801.03125 304.777344 801.03125 C 304.792969 801.03125 304.808594 801.03125 304.828125 801.046875 C 305.160156 801.460938 305.195312 802.855469 305.058594 805.382812 C 304.828125 807.695312 303.5 809.949219 302.730469 809.949219 C 302.667969 809.949219 302.652344 809.941406 302.609375 809.910156 L 302.367188 809.613281 L 302.324219 809.949219 C 301.855469 812.042969 300.859375 814.132812 299.574219 815.507812 L 303.300781 820.144531 L 317.5625 825.867188 L 321.238281 849.699219 L 265.78125 849.699219 L 269.363281 825.878906 " fill-opacity="1" fill-rule="nonzero"/></g><path fill="#8f0e1f" d="M 354.40625 803.464844 L 368.75 797.480469 L 372.136719 793.273438 C 370.695312 791.90625 369.617188 789.703125 369.109375 787.304688 L 369.09375 787.164062 L 368.914062 787.253906 C 368.886719 787.277344 368.835938 787.304688 368.792969 787.304688 C 367.953125 787.304688 366.636719 785.277344 366.402344 782.957031 C 366.335938 780.394531 366.359375 778.808594 366.625 778.644531 C 366.636719 778.613281 366.652344 778.613281 366.667969 778.613281 C 366.976562 778.613281 367.304688 778.804688 367.644531 779.394531 L 368.167969 780.003906 L 367.902344 779.308594 C 367.644531 778.316406 367.613281 777.640625 367.613281 776.976562 C 367.613281 770.425781 372.390625 765.054688 378.253906 765.054688 C 384.105469 765.054688 388.886719 770.425781 388.886719 776.976562 C 388.886719 777.640625 388.84375 778.316406 388.585938 779.308594 L 388.320312 780.003906 L 388.84375 779.394531 C 389.195312 778.804688 389.523438 778.613281 389.8125 778.613281 C 389.828125 778.613281 389.847656 778.613281 389.875 778.644531 C 390.128906 778.808594 390.164062 780.394531 390.097656 782.957031 C 389.863281 785.277344 388.535156 787.304688 387.707031 787.304688 C 387.636719 787.304688 387.601562 787.277344 387.558594 787.253906 L 387.398438 787.164062 L 387.363281 787.304688 C 386.890625 789.621094 385.90625 791.507812 384.613281 793.101562 L 388.269531 797.480469 L 402.597656 803.445312 L 406.214844 827.039062 L 350.816406 827.039062 L 354.40625 803.464844 " fill-opacity="1" fill-rule="nonzero"/><g clip-path="url(#5a7f173201)"><path fill="#8f0e1f" d="M 656.40625 804.765625 L 655.085938 804.6875 C 629.882812 804.6875 609.421875 827.640625 609.421875 855.886719 C 609.421875 858.257812 609.832031 860.957031 610.574219 864.09375 L 613.722656 876.652344 L 605.429688 868.191406 L 605.191406 868.78125 L 603.851562 867.925781 C 603.675781 870.394531 603.644531 874.910156 604.230469 882.980469 C 604.796875 891.648438 609.289062 898.34375 611.003906 899.871094 L 611.941406 899.058594 L 616.148438 900.871094 L 616.535156 903.046875 C 618.476562 913.230469 622.984375 922.15625 629.558594 928.855469 L 631.769531 931.09375 L 613.3125 953.546875 L 547.597656 980.710938 L 511.335938 1083.710938 L 801.277344 1083.710938 L 764.910156 980.710938 L 699.257812 953.546875 L 680.816406 931.09375 L 683.027344 928.855469 C 689.613281 922.15625 694.117188 913.230469 696.035156 902.996094 L 696.253906 900.761719 L 698.578125 900.167969 L 700.191406 898.976562 L 701.363281 899.871094 C 703.394531 898.226562 707.753906 891.558594 708.304688 882.945312 C 708.890625 874.886719 708.890625 870.378906 708.777344 867.96875 L 707.652344 868.566406 L 707.398438 867.980469 L 698.878906 876.652344 L 701.976562 864.09375 C 702.769531 860.957031 703.121094 858.257812 703.121094 855.886719 C 703.121094 827.640625 682.648438 804.6875 657.472656 804.6875 L 657.472656 801.183594 L 656.40625 804.765625 " fill-opacity="1" fill-rule="nonzero"/></g><path fill="#8f0e1f" d="M 718.375 863.28125 L 718.375 894.324219 C 718.375 901.195312 701.46875 907.003906 694.390625 907.003906 L 694.390625 850.582031 C 701.46875 850.582031 718.375 856.402344 718.375 863.28125 " fill-opacity="1" fill-rule="nonzero"/><path fill="#8f0e1f" d="M 597.195312 887.054688 L 604.300781 887.054688 L 604.300781 842.542969 C 604.300781 819.914062 624.058594 801.542969 648.382812 801.542969 L 664.230469 801.542969 C 688.496094 801.542969 708.257812 819.914062 708.257812 842.542969 L 708.257812 887.054688 L 715.351562 887.054688 L 715.351562 842.542969 C 715.351562 816.046875 692.433594 794.523438 664.230469 794.523438 L 648.382812 794.523438 C 620.199219 794.523438 597.195312 816.046875 597.195312 842.542969 L 597.195312 887.054688 " fill-opacity="1" fill-rule="nonzero"/><path fill="#8f0e1f" d="M 594.351562 863.28125 L 594.351562 894.324219 C 594.351562 901.191406 611.136719 907.003906 618.222656 907.003906 L 618.222656 850.582031 C 611.136719 850.582031 594.351562 856.402344 594.351562 863.28125 " fill-opacity="1" fill-rule="nonzero"/><path fill="#8f0e1f" d="M 517.375 1002.585938 C 517.375 1002.585938 515.871094 1003.550781 513.554688 1004.976562 C 511.277344 1006.355469 508.054688 1008.515625 504.652344 1010.085938 C 501.320312 1011.699219 497.71875 1013.355469 494.960938 1014.433594 C 492.230469 1015.410156 490.367188 1016.058594 490.367188 1016.058594 L 492.363281 1006.644531 L 491.457031 1006.460938 C 471.433594 1002.199219 452.570312 992.085938 438.191406 977.304688 C 423.847656 962.46875 414.875 942.066406 414.792969 921.152344 L 428.398438 921.140625 C 428.527344 938.460938 435.792969 955.320312 448.039062 968.046875 C 460.378906 980.671875 476.804688 989.605469 494.394531 993.351562 L 495.25 993.515625 L 497.316406 984.101562 C 497.316406 984.101562 498.328125 985.378906 499.914062 987.300781 C 501.523438 989.15625 503.890625 991.421875 506.386719 993.824219 C 508.882812 996.292969 511.601562 998.214844 513.71875 999.871094 C 515.929688 1001.496094 517.375 1002.585938 517.375 1002.585938 " fill-opacity="1" fill-rule="nonzero"/><path fill="#8f0e1f" d="M 467.25 693 C 467.25 693 467.164062 691.207031 467.015625 688.53125 C 466.957031 685.890625 466.625 682.046875 467 678.378906 C 467.25 674.679688 467.558594 670.792969 467.976562 667.910156 C 468.535156 665.035156 468.878906 663.117188 468.878906 663.117188 L 476.136719 669.542969 L 476.785156 668.847656 C 490.4375 653.804688 508.730469 642.6875 528.894531 637.664062 C 548.996094 632.730469 571.363281 635.125 589.828125 645.40625 L 583.074219 657.082031 C 567.804688 648.640625 549.363281 646.535156 532.097656 650.71875 C 514.824219 655.054688 498.816406 664.660156 486.777344 677.910156 L 486.226562 678.535156 L 493.453125 684.960938 C 493.453125 684.960938 491.789062 685.246094 489.347656 685.617188 C 486.925781 686.101562 483.777344 686.964844 480.410156 687.914062 C 476.964844 688.820312 473.949219 690.234375 471.40625 691.210938 C 468.902344 692.277344 467.25 693 467.25 693 " fill-opacity="1" fill-rule="nonzero"/></svg>