<svg xmlns="http://www.w3.org/2000/svg" xmlns:xlink="http://www.w3.org/1999/xlink" width="1587" zoomAndPan="magnify" viewBox="0 0 1190.25 1683.749949" height="2245" preserveAspectRatio="xMidYMid meet" version="1.0"><defs><clipPath id="a41a48625e"><path d="M 0 0.40625 L 1189.5 0.40625 L 1189.5 1683.09375 L 0 1683.09375 Z M 0 0.40625 " clip-rule="nonzero"/></clipPath><clipPath id="5f5eea2ebe"><path d="M 356.941406 365.84375 L 615 365.84375 L 615 624 L 356.941406 624 Z M 356.941406 365.84375 " clip-rule="nonzero"/></clipPath><clipPath id="14fca61575"><path d="M 575 583 L 832.890625 583 L 832.890625 841.792969 L 575 841.792969 Z M 575 583 " clip-rule="nonzero"/></clipPath></defs><g clip-path="url(#a41a48625e)"><path fill="#ffffff" d="M 0 0.40625 L 1189.5 0.40625 L 1189.5 1683.09375 L 0 1683.09375 Z M 0 0.40625 " fill-opacity="1" fill-rule="nonzero"/><path fill="#ffffff" d="M 0 0.40625 L 1189.5 0.40625 L 1189.5 1683.09375 L 0 1683.09375 Z M 0 0.40625 " fill-opacity="1" fill-rule="nonzero"/></g><g clip-path="url(#5f5eea2ebe)"><path fill="#8f0e1f" d="M 614.746094 613.734375 C 614.746094 556.839844 577.640625 508.511719 526.386719 491.464844 C 543.839844 478.84375 555.253906 458.375 555.253906 435.253906 C 555.253906 396.988281 524.109375 365.84375 485.84375 365.84375 C 447.578125 365.84375 416.433594 396.988281 416.433594 435.253906 C 416.433594 458.375 427.847656 478.84375 445.296875 491.464844 C 394.042969 508.511719 356.941406 556.839844 356.941406 613.734375 L 356.941406 623.652344 L 614.746094 623.652344 Z M 436.265625 435.253906 C 436.265625 407.917969 458.507812 385.675781 485.84375 385.675781 C 513.179688 385.675781 535.421875 407.917969 535.421875 435.253906 C 535.421875 462.589844 513.179688 484.832031 485.84375 484.832031 C 458.507812 484.832031 436.265625 462.589844 436.265625 435.253906 Z M 377.21875 603.820312 C 382.246094 548.300781 429.035156 504.664062 485.84375 504.664062 C 542.648438 504.664062 589.441406 548.300781 594.46875 603.820312 Z M 377.21875 603.820312 " fill-opacity="1" fill-rule="nonzero"/></g><g clip-path="url(#14fca61575)"><path fill="#8f0e1f" d="M 744.53125 709.609375 C 761.984375 696.988281 773.398438 676.519531 773.398438 653.398438 C 773.398438 615.132812 742.25 583.988281 703.988281 583.988281 C 665.722656 583.988281 634.578125 615.132812 634.578125 653.398438 C 634.578125 676.519531 645.992188 696.988281 663.441406 709.609375 C 612.1875 726.652344 575.085938 774.984375 575.085938 831.878906 L 575.085938 841.792969 L 832.890625 841.792969 L 832.890625 831.878906 C 832.890625 774.984375 795.785156 726.652344 744.53125 709.609375 Z M 654.410156 653.398438 C 654.410156 626.058594 676.648438 603.820312 703.988281 603.820312 C 731.324219 603.820312 753.566406 626.058594 753.566406 653.398438 C 753.566406 680.734375 731.324219 702.976562 703.988281 702.976562 C 676.648438 702.976562 654.410156 680.734375 654.410156 653.398438 Z M 595.363281 821.964844 C 600.390625 766.445312 647.179688 722.808594 703.988281 722.808594 C 760.792969 722.808594 807.585938 766.445312 812.613281 821.964844 Z M 595.363281 821.964844 " fill-opacity="1" fill-rule="nonzero"/></g><path fill="#8f0e1f" d="M 713.902344 544.324219 L 713.902344 425.339844 L 628.765625 425.339844 L 661.417969 392.6875 L 647.398438 378.664062 L 590.808594 435.253906 L 647.398438 491.84375 L 661.417969 477.820312 L 628.765625 445.167969 L 694.070312 445.167969 L 694.070312 544.324219 Z M 713.902344 544.324219 " fill-opacity="1" fill-rule="nonzero"/><path fill="#8f0e1f" d="M 468.917969 729.816406 L 501.570312 762.46875 L 436.265625 762.46875 L 436.265625 663.3125 L 416.433594 663.3125 L 416.433594 782.300781 L 501.570312 782.300781 L 468.917969 814.953125 L 482.9375 828.972656 L 539.527344 772.386719 L 482.9375 715.796875 Z M 468.917969 729.816406 " fill-opacity="1" fill-rule="nonzero"/></svg>