<svg xmlns="http://www.w3.org/2000/svg" xmlns:xlink="http://www.w3.org/1999/xlink" width="1587" zoomAndPan="magnify" viewBox="0 0 1190.25 1683.749949" height="2245" preserveAspectRatio="xMidYMid meet" version="1.0"><defs><clipPath id="f9856caee7"><path d="M 0 0.40625 L 1189.5 0.40625 L 1189.5 1683.09375 L 0 1683.09375 Z M 0 0.40625 " clip-rule="nonzero"/></clipPath><clipPath id="4716060cb3"><path d="M 292.554688 652 L 482 652 L 482 841.707031 L 292.554688 841.707031 Z M 292.554688 652 " clip-rule="nonzero"/></clipPath><clipPath id="3feda63ff1"><path d="M 500 652 L 690 652 L 690 841.707031 L 500 841.707031 Z M 500 652 " clip-rule="nonzero"/></clipPath><clipPath id="b320f7f789"><path d="M 708 652 L 897.421875 652 L 897.421875 841.707031 L 708 841.707031 Z M 708 652 " clip-rule="nonzero"/></clipPath><clipPath id="0da842a425"><path d="M 424 388.242188 L 766 388.242188 L 766 625 L 424 625 Z M 424 388.242188 " clip-rule="nonzero"/></clipPath></defs><g clip-path="url(#f9856caee7)"><path fill="#ffffff" d="M 0 0.40625 L 1189.5 0.40625 L 1189.5 1683.09375 L 0 1683.09375 Z M 0 0.40625 " fill-opacity="1" fill-rule="nonzero"/><path fill="#ffffff" d="M 0 0.40625 L 1189.5 0.40625 L 1189.5 1683.09375 L 0 1683.09375 Z M 0 0.40625 " fill-opacity="1" fill-rule="nonzero"/></g><g clip-path="url(#4716060cb3)"><path fill="#8f0e1f" d="M 387.066406 652.765625 C 335.089844 652.765625 292.558594 695.277344 292.558594 747.234375 C 292.558594 799.195312 335.089844 841.707031 387.066406 841.707031 C 439.046875 841.707031 481.578125 799.195312 481.578125 747.234375 C 481.578125 695.277344 439.046875 652.765625 387.066406 652.765625 Z M 387.066406 822.8125 C 345.484375 822.8125 311.460938 788.804688 311.460938 747.234375 C 311.460938 705.667969 345.484375 671.660156 387.066406 671.660156 C 428.652344 671.660156 462.675781 705.667969 462.675781 747.234375 C 462.675781 788.804688 428.652344 822.8125 387.066406 822.8125 Z M 387.066406 822.8125 " fill-opacity="1" fill-rule="nonzero"/></g><path fill="#8f0e1f" d="M 414.949219 768.019531 C 399.828125 778.410156 374.78125 778.410156 359.660156 768.019531 C 355.40625 765.1875 349.265625 766.128906 346.429688 770.382812 C 343.59375 774.632812 344.539062 780.300781 348.792969 783.136719 C 359.660156 790.691406 373.363281 794.472656 387.066406 794.472656 C 400.773438 794.472656 414.949219 790.691406 425.34375 783.136719 C 429.597656 780.300781 430.542969 774.160156 427.707031 769.910156 C 424.871094 766.128906 419.199219 764.714844 414.949219 768.019531 Z M 414.949219 768.019531 " fill-opacity="1" fill-rule="nonzero"/><path fill="#8f0e1f" d="M 372.890625 727.398438 C 372.890625 728.015625 372.832031 728.632812 372.710938 729.238281 C 372.589844 729.847656 372.410156 730.4375 372.171875 731.011719 C 371.933594 731.585938 371.644531 732.128906 371.296875 732.644531 C 370.953125 733.160156 370.5625 733.636719 370.125 734.078125 C 369.683594 734.515625 369.207031 734.90625 368.691406 735.253906 C 368.175781 735.597656 367.628906 735.886719 367.058594 736.125 C 366.484375 736.363281 365.894531 736.542969 365.285156 736.664062 C 364.675781 736.785156 364.0625 736.84375 363.441406 736.84375 C 362.820312 736.84375 362.207031 736.785156 361.597656 736.664062 C 360.988281 736.542969 360.398438 736.363281 359.824219 736.125 C 359.25 735.886719 358.707031 735.597656 358.191406 735.253906 C 357.675781 734.90625 357.195312 734.515625 356.757812 734.078125 C 356.320312 733.636719 355.925781 733.160156 355.582031 732.644531 C 355.238281 732.128906 354.945312 731.585938 354.710938 731.011719 C 354.472656 730.4375 354.292969 729.847656 354.171875 729.238281 C 354.050781 728.632812 353.988281 728.015625 353.988281 727.398438 C 353.988281 726.777344 354.050781 726.164062 354.171875 725.554688 C 354.292969 724.945312 354.472656 724.355469 354.710938 723.78125 C 354.945312 723.207031 355.238281 722.664062 355.582031 722.148438 C 355.925781 721.632812 356.320312 721.15625 356.757812 720.71875 C 357.195312 720.277344 357.675781 719.886719 358.191406 719.542969 C 358.707031 719.199219 359.25 718.90625 359.824219 718.667969 C 360.398438 718.429688 360.988281 718.253906 361.597656 718.132812 C 362.207031 718.011719 362.820312 717.949219 363.441406 717.949219 C 364.0625 717.949219 364.675781 718.011719 365.285156 718.132812 C 365.894531 718.253906 366.484375 718.429688 367.058594 718.667969 C 367.628906 718.90625 368.175781 719.199219 368.691406 719.542969 C 369.207031 719.886719 369.683594 720.277344 370.125 720.71875 C 370.5625 721.15625 370.953125 721.632812 371.296875 722.148438 C 371.644531 722.664062 371.933594 723.207031 372.171875 723.78125 C 372.410156 724.355469 372.589844 724.945312 372.710938 725.554688 C 372.832031 726.164062 372.890625 726.777344 372.890625 727.398438 Z M 372.890625 727.398438 " fill-opacity="1" fill-rule="nonzero"/><path fill="#8f0e1f" d="M 415.421875 727.398438 C 415.421875 728.015625 415.359375 728.632812 415.238281 729.238281 C 415.117188 729.847656 414.9375 730.4375 414.699219 731.011719 C 414.464844 731.585938 414.171875 732.128906 413.828125 732.644531 C 413.484375 733.160156 413.089844 733.636719 412.652344 734.078125 C 412.214844 734.515625 411.734375 734.90625 411.21875 735.253906 C 410.703125 735.597656 410.160156 735.886719 409.585938 736.125 C 409.011719 736.363281 408.421875 736.542969 407.8125 736.664062 C 407.203125 736.785156 406.589844 736.84375 405.96875 736.84375 C 405.347656 736.84375 404.734375 736.785156 404.125 736.664062 C 403.515625 736.542969 402.925781 736.363281 402.351562 736.125 C 401.78125 735.886719 401.234375 735.597656 400.71875 735.253906 C 400.203125 734.90625 399.726562 734.515625 399.285156 734.078125 C 398.847656 733.636719 398.457031 733.160156 398.113281 732.644531 C 397.765625 732.128906 397.476562 731.585938 397.238281 731.011719 C 397 730.4375 396.820312 729.847656 396.699219 729.238281 C 396.578125 728.632812 396.519531 728.015625 396.519531 727.398438 C 396.519531 726.777344 396.578125 726.164062 396.699219 725.554688 C 396.820312 724.945312 397 724.355469 397.238281 723.78125 C 397.476562 723.207031 397.765625 722.664062 398.113281 722.148438 C 398.457031 721.632812 398.847656 721.15625 399.285156 720.71875 C 399.726562 720.277344 400.203125 719.886719 400.71875 719.542969 C 401.234375 719.199219 401.78125 718.90625 402.351562 718.667969 C 402.925781 718.429688 403.515625 718.253906 404.125 718.132812 C 404.734375 718.011719 405.347656 717.949219 405.96875 717.949219 C 406.589844 717.949219 407.203125 718.011719 407.8125 718.132812 C 408.421875 718.253906 409.011719 718.429688 409.585938 718.667969 C 410.160156 718.90625 410.703125 719.199219 411.21875 719.542969 C 411.734375 719.886719 412.214844 720.277344 412.652344 720.71875 C 413.089844 721.15625 413.484375 721.632812 413.828125 722.148438 C 414.171875 722.664062 414.464844 723.207031 414.699219 723.78125 C 414.9375 724.355469 415.117188 724.945312 415.238281 725.554688 C 415.359375 726.164062 415.421875 726.777344 415.421875 727.398438 Z M 415.421875 727.398438 " fill-opacity="1" fill-rule="nonzero"/><g clip-path="url(#3feda63ff1)"><path fill="#8f0e1f" d="M 594.988281 652.765625 C 543.007812 652.765625 500.480469 695.277344 500.480469 747.234375 C 500.480469 799.195312 543.007812 841.707031 594.988281 841.707031 C 646.96875 841.707031 689.496094 799.195312 689.496094 747.234375 C 689.496094 695.277344 646.96875 652.765625 594.988281 652.765625 Z M 594.988281 822.8125 C 553.402344 822.8125 519.378906 788.804688 519.378906 747.234375 C 519.378906 705.667969 553.402344 671.660156 594.988281 671.660156 C 636.570312 671.660156 670.59375 705.667969 670.59375 747.234375 C 670.59375 788.804688 636.570312 822.8125 594.988281 822.8125 Z M 594.988281 822.8125 " fill-opacity="1" fill-rule="nonzero"/></g><g clip-path="url(#b320f7f789)"><path fill="#8f0e1f" d="M 802.90625 652.765625 C 750.925781 652.765625 708.398438 695.277344 708.398438 747.234375 C 708.398438 799.195312 750.925781 841.707031 802.90625 841.707031 C 854.886719 841.707031 897.417969 799.195312 897.417969 747.234375 C 897.417969 695.277344 854.886719 652.765625 802.90625 652.765625 Z M 802.90625 822.8125 C 761.324219 822.8125 727.300781 788.804688 727.300781 747.234375 C 727.300781 705.667969 761.324219 671.660156 802.90625 671.660156 C 844.492188 671.660156 878.515625 705.667969 878.515625 747.234375 C 878.515625 788.804688 844.492188 822.8125 802.90625 822.8125 Z M 802.90625 822.8125 " fill-opacity="1" fill-rule="nonzero"/></g><path fill="#8f0e1f" d="M 583.175781 727.398438 C 583.175781 728.015625 583.113281 728.632812 582.992188 729.238281 C 582.871094 729.847656 582.691406 730.4375 582.453125 731.011719 C 582.21875 731.585938 581.925781 732.128906 581.582031 732.644531 C 581.238281 733.160156 580.84375 733.636719 580.40625 734.078125 C 579.96875 734.515625 579.488281 734.90625 578.972656 735.253906 C 578.457031 735.597656 577.914062 735.886719 577.339844 736.125 C 576.765625 736.363281 576.175781 736.542969 575.566406 736.664062 C 574.957031 736.785156 574.34375 736.84375 573.722656 736.84375 C 573.101562 736.84375 572.488281 736.785156 571.878906 736.664062 C 571.269531 736.542969 570.679688 736.363281 570.105469 736.125 C 569.53125 735.886719 568.988281 735.597656 568.472656 735.253906 C 567.957031 734.90625 567.480469 734.515625 567.039062 734.078125 C 566.601562 733.636719 566.210938 733.160156 565.863281 732.644531 C 565.519531 732.128906 565.230469 731.585938 564.992188 731.011719 C 564.753906 730.4375 564.574219 729.847656 564.453125 729.238281 C 564.332031 728.632812 564.273438 728.015625 564.273438 727.398438 C 564.273438 726.777344 564.332031 726.164062 564.453125 725.554688 C 564.574219 724.945312 564.753906 724.355469 564.992188 723.78125 C 565.230469 723.207031 565.519531 722.664062 565.863281 722.148438 C 566.210938 721.632812 566.601562 721.15625 567.039062 720.71875 C 567.480469 720.277344 567.957031 719.886719 568.472656 719.542969 C 568.988281 719.199219 569.53125 718.90625 570.105469 718.667969 C 570.679688 718.429688 571.269531 718.253906 571.878906 718.132812 C 572.488281 718.011719 573.101562 717.949219 573.722656 717.949219 C 574.34375 717.949219 574.957031 718.011719 575.566406 718.132812 C 576.175781 718.253906 576.765625 718.429688 577.339844 718.667969 C 577.914062 718.90625 578.457031 719.199219 578.972656 719.542969 C 579.488281 719.886719 579.96875 720.277344 580.40625 720.71875 C 580.84375 721.15625 581.238281 721.632812 581.582031 722.148438 C 581.925781 722.664062 582.21875 723.207031 582.453125 723.78125 C 582.691406 724.355469 582.871094 724.945312 582.992188 725.554688 C 583.113281 726.164062 583.175781 726.777344 583.175781 727.398438 Z M 583.175781 727.398438 " fill-opacity="1" fill-rule="nonzero"/><path fill="#8f0e1f" d="M 625.703125 727.398438 C 625.703125 728.015625 625.640625 728.632812 625.519531 729.238281 C 625.398438 729.847656 625.222656 730.4375 624.984375 731.011719 C 624.746094 731.585938 624.453125 732.128906 624.109375 732.644531 C 623.765625 733.160156 623.375 733.636719 622.933594 734.078125 C 622.496094 734.515625 622.019531 734.90625 621.503906 735.253906 C 620.988281 735.597656 620.441406 735.886719 619.867188 736.125 C 619.296875 736.363281 618.703125 736.542969 618.097656 736.664062 C 617.488281 736.785156 616.871094 736.84375 616.253906 736.84375 C 615.632812 736.84375 615.015625 736.785156 614.410156 736.664062 C 613.800781 736.542969 613.207031 736.363281 612.636719 736.125 C 612.0625 735.886719 611.515625 735.597656 611 735.253906 C 610.484375 734.90625 610.007812 734.515625 609.570312 734.078125 C 609.128906 733.636719 608.738281 733.160156 608.394531 732.644531 C 608.050781 732.128906 607.757812 731.585938 607.519531 731.011719 C 607.28125 730.4375 607.105469 729.847656 606.984375 729.238281 C 606.863281 728.632812 606.800781 728.015625 606.800781 727.398438 C 606.800781 726.777344 606.863281 726.164062 606.984375 725.554688 C 607.105469 724.945312 607.28125 724.355469 607.519531 723.78125 C 607.757812 723.207031 608.050781 722.664062 608.394531 722.148438 C 608.738281 721.632812 609.128906 721.15625 609.570312 720.71875 C 610.007812 720.277344 610.484375 719.886719 611 719.542969 C 611.515625 719.199219 612.0625 718.90625 612.636719 718.667969 C 613.207031 718.429688 613.800781 718.253906 614.410156 718.132812 C 615.015625 718.011719 615.632812 717.949219 616.253906 717.949219 C 616.871094 717.949219 617.488281 718.011719 618.097656 718.132812 C 618.703125 718.253906 619.296875 718.429688 619.867188 718.667969 C 620.441406 718.90625 620.988281 719.199219 621.503906 719.542969 C 622.019531 719.886719 622.496094 720.277344 622.933594 720.71875 C 623.375 721.15625 623.765625 721.632812 624.109375 722.148438 C 624.453125 722.664062 624.746094 723.207031 624.984375 723.78125 C 625.222656 724.355469 625.398438 724.945312 625.519531 725.554688 C 625.640625 726.164062 625.703125 726.777344 625.703125 727.398438 Z M 625.703125 727.398438 " fill-opacity="1" fill-rule="nonzero"/><path fill="#8f0e1f" d="M 791.09375 729.757812 C 791.09375 730.378906 791.03125 730.992188 790.910156 731.601562 C 790.789062 732.210938 790.613281 732.800781 790.375 733.375 C 790.136719 733.945312 789.84375 734.492188 789.5 735.007812 C 789.15625 735.523438 788.765625 736 788.324219 736.4375 C 787.886719 736.878906 787.410156 737.269531 786.894531 737.613281 C 786.378906 737.957031 785.832031 738.25 785.257812 738.488281 C 784.6875 738.722656 784.09375 738.902344 783.488281 739.023438 C 782.878906 739.144531 782.261719 739.207031 781.644531 739.207031 C 781.023438 739.207031 780.40625 739.144531 779.800781 739.023438 C 779.191406 738.902344 778.597656 738.722656 778.027344 738.488281 C 777.453125 738.25 776.90625 737.957031 776.390625 737.613281 C 775.875 737.269531 775.398438 736.878906 774.960938 736.4375 C 774.519531 736 774.128906 735.523438 773.785156 735.007812 C 773.441406 734.492188 773.148438 733.945312 772.910156 733.375 C 772.671875 732.800781 772.496094 732.210938 772.375 731.601562 C 772.253906 730.992188 772.191406 730.378906 772.191406 729.757812 C 772.191406 729.136719 772.253906 728.523438 772.375 727.914062 C 772.496094 727.308594 772.671875 726.714844 772.910156 726.144531 C 773.148438 725.570312 773.441406 725.027344 773.785156 724.511719 C 774.128906 723.996094 774.519531 723.515625 774.960938 723.078125 C 775.398438 722.640625 775.875 722.25 776.390625 721.902344 C 776.90625 721.558594 777.453125 721.269531 778.027344 721.03125 C 778.597656 720.792969 779.191406 720.613281 779.800781 720.492188 C 780.40625 720.371094 781.023438 720.3125 781.644531 720.3125 C 782.261719 720.3125 782.878906 720.371094 783.488281 720.492188 C 784.09375 720.613281 784.6875 720.792969 785.257812 721.03125 C 785.832031 721.269531 786.378906 721.558594 786.894531 721.902344 C 787.410156 722.25 787.886719 722.640625 788.324219 723.078125 C 788.765625 723.515625 789.15625 723.996094 789.5 724.511719 C 789.84375 725.027344 790.136719 725.570312 790.375 726.144531 C 790.613281 726.714844 790.789062 727.308594 790.910156 727.914062 C 791.03125 728.523438 791.09375 729.136719 791.09375 729.757812 Z M 791.09375 729.757812 " fill-opacity="1" fill-rule="nonzero"/><path fill="#8f0e1f" d="M 833.621094 727.398438 C 833.621094 728.015625 833.5625 728.632812 833.441406 729.238281 C 833.320312 729.847656 833.140625 730.4375 832.902344 731.011719 C 832.664062 731.585938 832.375 732.128906 832.03125 732.644531 C 831.683594 733.160156 831.292969 733.636719 830.855469 734.078125 C 830.414062 734.515625 829.9375 734.90625 829.421875 735.253906 C 828.90625 735.597656 828.363281 735.886719 827.789062 736.125 C 827.214844 736.363281 826.625 736.542969 826.015625 736.664062 C 825.40625 736.785156 824.792969 736.84375 824.171875 736.84375 C 823.550781 736.84375 822.9375 736.785156 822.328125 736.664062 C 821.71875 736.542969 821.128906 736.363281 820.554688 736.125 C 819.980469 735.886719 819.4375 735.597656 818.921875 735.253906 C 818.40625 734.90625 817.925781 734.515625 817.488281 734.078125 C 817.050781 733.636719 816.660156 733.160156 816.3125 732.644531 C 815.96875 732.128906 815.675781 731.585938 815.441406 731.011719 C 815.203125 730.4375 815.023438 729.847656 814.902344 729.238281 C 814.78125 728.632812 814.722656 728.015625 814.722656 727.398438 C 814.722656 726.777344 814.78125 726.164062 814.902344 725.554688 C 815.023438 724.945312 815.203125 724.355469 815.441406 723.78125 C 815.675781 723.207031 815.96875 722.664062 816.3125 722.148438 C 816.660156 721.632812 817.050781 721.15625 817.488281 720.71875 C 817.925781 720.277344 818.40625 719.886719 818.921875 719.542969 C 819.4375 719.199219 819.980469 718.90625 820.554688 718.667969 C 821.128906 718.429688 821.71875 718.253906 822.328125 718.132812 C 822.9375 718.011719 823.550781 717.949219 824.171875 717.949219 C 824.792969 717.949219 825.40625 718.011719 826.015625 718.132812 C 826.625 718.253906 827.214844 718.429688 827.789062 718.667969 C 828.363281 718.90625 828.90625 719.199219 829.421875 719.542969 C 829.9375 719.886719 830.414062 720.277344 830.855469 720.71875 C 831.292969 721.15625 831.683594 721.632812 832.03125 722.148438 C 832.375 722.664062 832.664062 723.207031 832.902344 723.78125 C 833.140625 724.355469 833.320312 724.945312 833.441406 725.554688 C 833.5625 726.164062 833.621094 726.777344 833.621094 727.398438 Z M 833.621094 727.398438 " fill-opacity="1" fill-rule="nonzero"/><path fill="#8f0e1f" d="M 625.703125 770.855469 L 564.273438 770.855469 C 559.074219 770.855469 554.820312 775.105469 554.820312 780.300781 C 554.820312 785.496094 559.074219 789.75 564.273438 789.75 L 625.703125 789.75 C 630.902344 789.75 635.152344 785.496094 635.152344 780.300781 C 635.152344 775.105469 630.902344 770.855469 625.703125 770.855469 Z M 625.703125 770.855469 " fill-opacity="1" fill-rule="nonzero"/><path fill="#8f0e1f" d="M 841.183594 772.742188 C 819.445312 758.101562 785.894531 758.101562 764.160156 772.742188 C 759.90625 775.578125 758.960938 781.71875 761.796875 785.96875 C 764.632812 790.222656 770.773438 791.164062 775.027344 788.332031 C 790.148438 777.941406 815.195312 777.941406 830.316406 788.332031 C 834.566406 791.164062 840.710938 790.222656 843.546875 785.96875 C 846.855469 781.246094 845.4375 775.578125 841.183594 772.742188 Z M 841.183594 772.742188 " fill-opacity="1" fill-rule="nonzero"/><g clip-path="url(#0da842a425)"><path fill="#8f0e1f" d="M 453.222656 577.1875 L 565.21875 577.1875 C 565.21875 577.1875 612 621.589844 612 621.589844 C 617.667969 627.257812 628.066406 623.007812 628.066406 614.976562 L 628.066406 577.1875 L 736.75 577.1875 C 752.34375 577.1875 765.105469 564.433594 765.105469 548.84375 L 765.105469 416.585938 C 765.105469 400.996094 752.34375 388.242188 736.75 388.242188 L 453.222656 388.242188 C 437.628906 388.242188 424.871094 400.996094 424.871094 416.585938 L 424.871094 548.84375 C 424.871094 564.433594 437.628906 577.1875 453.222656 577.1875 Z M 443.773438 416.585938 C 443.773438 411.390625 448.027344 407.136719 453.222656 407.136719 L 736.75 407.136719 C 741.949219 407.136719 746.203125 411.390625 746.203125 416.585938 L 746.203125 548.84375 C 746.203125 554.042969 741.949219 558.292969 736.75 558.292969 L 618.613281 558.292969 C 613.417969 558.292969 609.164062 562.542969 609.164062 567.738281 L 609.164062 592.773438 L 575.613281 560.65625 C 573.722656 559.238281 571.359375 558.292969 568.996094 558.292969 L 453.222656 558.292969 C 448.027344 558.292969 443.773438 554.042969 443.773438 548.84375 Z M 443.773438 416.585938 " fill-opacity="1" fill-rule="nonzero"/></g><path fill="#8f0e1f" d="M 500.480469 529.953125 L 689.496094 529.953125 C 694.695312 529.953125 698.949219 525.699219 698.949219 520.503906 C 698.949219 515.308594 694.695312 511.058594 689.496094 511.058594 L 500.480469 511.058594 C 495.28125 511.058594 491.027344 515.308594 491.027344 520.503906 C 491.027344 525.699219 495.28125 529.953125 500.480469 529.953125 Z M 500.480469 529.953125 " fill-opacity="1" fill-rule="nonzero"/><path fill="#8f0e1f" d="M 500.480469 492.164062 L 689.496094 492.164062 C 694.695312 492.164062 698.949219 487.910156 698.949219 482.714844 C 698.949219 477.519531 694.695312 473.269531 689.496094 473.269531 L 500.480469 473.269531 C 495.28125 473.269531 491.027344 477.519531 491.027344 482.714844 C 491.027344 487.910156 495.28125 492.164062 500.480469 492.164062 Z M 500.480469 492.164062 " fill-opacity="1" fill-rule="nonzero"/><path fill="#8f0e1f" d="M 500.480469 454.375 L 689.496094 454.375 C 694.695312 454.375 698.949219 450.121094 698.949219 444.925781 C 698.949219 439.730469 694.695312 435.480469 689.496094 435.480469 L 500.480469 435.480469 C 495.28125 435.480469 491.027344 439.730469 491.027344 444.925781 C 491.027344 450.121094 495.28125 454.375 500.480469 454.375 Z M 500.480469 454.375 " fill-opacity="1" fill-rule="nonzero"/></svg>