<svg xmlns="http://www.w3.org/2000/svg" xmlns:xlink="http://www.w3.org/1999/xlink" width="1587" zoomAndPan="magnify" viewBox="0 0 1190.25 1683.749949" height="2245" preserveAspectRatio="xMidYMid meet" version="1.0"><defs><clipPath id="e6548c5768"><path d="M 0 0.40625 L 1189.5 0.40625 L 1189.5 1683.09375 L 0 1683.09375 Z M 0 0.40625 " clip-rule="nonzero"/></clipPath><clipPath id="b048c7157a"><path d="M 704 411 L 832.890625 411 L 832.890625 556 L 704 556 Z M 704 411 " clip-rule="nonzero"/></clipPath></defs><g clip-path="url(#e6548c5768)"><path fill="#ffffff" d="M 0 0.40625 L 1189.5 0.40625 L 1189.5 1683.09375 L 0 1683.09375 Z M 0 0.40625 " fill-opacity="1" fill-rule="nonzero"/><path fill="#ffffff" d="M 0 0.40625 L 1189.5 0.40625 L 1189.5 1683.09375 L 0 1683.09375 Z M 0 0.40625 " fill-opacity="1" fill-rule="nonzero"/></g><path fill="#8f0e1f" d="M 680.011719 823.960938 L 612.15625 837.078125 L 483.972656 861.835938 C 499.796875 820.960938 503.746094 776.914062 495.375 733.574219 L 482.824219 668.585938 C 469.261719 598.503906 515.285156 530.414062 585.433594 516.855469 C 593.699219 515.269531 602.035156 514.496094 610.300781 514.496094 C 635.878906 514.496094 660.914062 522.082031 682.578125 536.71875 C 711.257812 556.113281 730.660156 585.488281 737.238281 619.449219 L 752.152344 696.511719 C 759.507812 734.722656 776.445312 770.574219 801.144531 800.554688 Z M 548.214844 506.5 C 546.460938 497.429688 548.351562 488.222656 553.515625 480.566406 C 558.675781 472.910156 566.503906 467.75 575.515625 466.03125 C 594.847656 462.355469 612.527344 475.035156 616.070312 493.347656 L 616.882812 497.566406 C 605.476562 497.023438 593.835938 497.664062 582.160156 499.925781 C 570.453125 502.183594 559.417969 505.929688 548.992188 510.683594 Z M 654.265625 872.894531 C 640.265625 875.59375 626.632812 866.421875 623.933594 852.390625 L 674.816406 842.542969 C 677.515625 856.574219 668.304688 870.199219 654.265625 872.894531 Z M 817.410156 793.035156 C 792.914062 764.605469 776.210938 730.070312 769.089844 693.242188 L 754.210938 616.175781 C 742.300781 554.628906 693.273438 509.636719 634.832031 499.519531 L 633.011719 490.109375 C 627.746094 462.625 601.023438 443.636719 572.308594 449.066406 C 558.710938 451.664062 546.96875 459.421875 539.207031 470.921875 C 531.445312 482.386719 528.613281 496.183594 531.246094 509.773438 L 533.066406 519.214844 C 482.65625 550.34375 453.941406 610.34375 465.851562 671.859375 L 478.40625 736.847656 C 487.007812 781.296875 481.578125 826.558594 462.714844 867.703125 L 461.769531 869.828125 C 460.421875 872.761719 460.824219 876.203125 462.847656 878.730469 C 464.503906 880.855469 467 882.035156 469.632812 882.035156 C 470.171875 882.035156 470.710938 881.96875 471.25 881.867188 L 606.960938 855.664062 C 610.941406 876.269531 629.0625 890.636719 649.339844 890.636719 C 652.039062 890.636719 654.808594 890.367188 657.574219 889.859375 C 680.957031 885.339844 696.277344 862.644531 691.753906 839.273438 L 818.996094 814.6875 C 822 814.113281 824.496094 811.953125 825.507812 809.054688 C 826.519531 806.152344 825.914062 802.914062 823.886719 800.589844 L 817.410156 793.035156 " fill-opacity="1" fill-rule="nonzero"/><path fill="#8f0e1f" d="M 796.757812 549.0625 C 797.875 543.429688 798.414062 537.765625 798.414062 532.132812 C 798.414062 484.511719 759.675781 445.796875 712.035156 445.796875 C 710.582031 445.796875 709.132812 445.898438 707.714844 446 L 706.667969 446.066406 L 707.75 463.300781 L 708.894531 463.230469 C 709.941406 463.128906 710.988281 463.0625 712.035156 463.0625 C 750.160156 463.0625 781.136719 494.058594 781.136719 532.132812 C 781.136719 536.617188 780.699219 541.171875 779.789062 545.691406 L 796.757812 549.0625 " fill-opacity="1" fill-rule="nonzero"/><g clip-path="url(#b048c7157a)"><path fill="#8f0e1f" d="M 712.035156 411.261719 C 710.042969 411.261719 708.085938 411.394531 706.128906 411.53125 L 704.507812 411.632812 L 705.589844 428.867188 L 707.34375 428.765625 C 708.894531 428.664062 710.449219 428.527344 712.035156 428.527344 C 769.191406 428.527344 815.6875 475.003906 815.6875 532.132812 C 815.6875 538.878906 815.015625 545.726562 813.664062 552.4375 L 830.636719 555.808594 C 832.1875 547.984375 832.964844 539.992188 832.964844 532.132812 C 832.964844 465.492188 778.742188 411.261719 712.035156 411.261719 " fill-opacity="1" fill-rule="nonzero"/></g><path fill="#8f0e1f" d="M 762.847656 542.285156 C 763.523438 538.878906 763.859375 535.472656 763.859375 532.132812 C 763.859375 503.566406 740.613281 480.332031 712.035156 480.332031 C 711.121094 480.332031 710.210938 480.433594 708.792969 480.601562 L 709.941406 497.867188 C 710.515625 497.800781 711.089844 497.734375 712.035156 497.597656 C 731.097656 497.597656 746.585938 513.078125 746.585938 532.132812 C 746.585938 534.359375 746.347656 536.617188 745.910156 538.910156 L 762.847656 542.285156 " fill-opacity="1" fill-rule="nonzero"/><path fill="#8f0e1f" d="M 459.609375 501.242188 C 460.65625 500.902344 461.667969 500.632812 462.679688 500.363281 L 463.761719 500.09375 L 459.308594 483.398438 L 458.363281 483.667969 C 456.945312 484.007812 455.527344 484.378906 454.109375 484.882812 C 408.964844 499.992188 384.5 548.996094 399.652344 594.15625 C 401.40625 599.449219 403.765625 604.675781 406.601562 609.632812 L 421.617188 601.101562 C 419.324219 597.089844 417.433594 592.90625 416.015625 588.65625 C 403.902344 552.539062 423.472656 513.347656 459.609375 501.242188 " fill-opacity="1" fill-rule="nonzero"/><path fill="#8f0e1f" d="M 388.785156 520.53125 C 401.101562 495.742188 422.394531 477.296875 448.644531 468.492188 C 450.195312 467.988281 451.75 467.582031 453.335938 467.144531 L 454.851562 466.773438 L 450.433594 450.078125 L 448.980469 450.449219 C 447.023438 450.957031 445.101562 451.460938 443.144531 452.101562 C 412.507812 462.355469 387.707031 483.9375 373.296875 512.84375 C 358.890625 541.710938 356.628906 574.492188 366.886719 605.117188 C 369.382812 612.570312 372.65625 619.886719 376.640625 626.835938 L 391.621094 618.269531 C 388.210938 612.300781 385.378906 606.027344 383.253906 599.617188 C 374.480469 573.378906 376.4375 545.285156 388.785156 520.53125 " fill-opacity="1" fill-rule="nonzero"/><path fill="#8f0e1f" d="M 470.949219 533.921875 C 471.519531 533.820312 472.128906 533.683594 472.703125 533.550781 L 467.742188 516.957031 C 466.863281 517.125 465.953125 517.328125 465.078125 517.632812 C 437.980469 526.667969 423.335938 556.113281 432.378906 583.160156 C 433.460938 586.363281 434.878906 589.5 436.597656 592.46875 L 451.578125 583.902344 C 450.433594 581.878906 449.488281 579.789062 448.777344 577.695312 C 442.738281 559.652344 452.523438 540.023438 470.949219 533.921875 " fill-opacity="1" fill-rule="nonzero"/><path fill="#8f0e1f" d="M 540.757812 754.925781 L 523.820312 758.296875 L 526.351562 770.945312 C 529.828125 788.378906 526.316406 806.121094 516.464844 820.890625 L 530.839844 830.46875 C 543.257812 811.851562 547.675781 789.492188 543.289062 767.570312 L 540.757812 754.925781 " fill-opacity="1" fill-rule="nonzero"/></svg>